<svg xmlns="http://www.w3.org/2000/svg" xmlns:xlink="http://www.w3.org/1999/xlink" width="1920" zoomAndPan="magnify" viewBox="0 0 1440 809.999993" height="1080" preserveAspectRatio="xMidYMid meet" version="1.0"><defs><clipPath id="474cd653fe"><path d="M 935.46875 98.398438 L 1014.480469 98.398438 L 1014.480469 205 L 935.46875 205 Z M 935.46875 98.398438 " clip-rule="nonzero"/></clipPath><clipPath id="c2ce5add35"><path d="M 564.480469 398 L 771 398 L 771 566 L 564.480469 566 Z M 564.480469 398 " clip-rule="nonzero"/></clipPath><clipPath id="20a34f21cc"><path d="M 564.480469 425 L 570 425 L 570 434 L 564.480469 434 Z M 564.480469 425 " clip-rule="nonzero"/></clipPath></defs><path fill="#7a3c27" d="M 629.523438 429.292969 C 628.835938 429.292969 628.222656 428.800781 628.101562 428.097656 C 627.964844 427.3125 628.488281 426.5625 629.273438 426.425781 C 629.824219 426.328125 685.089844 416.519531 742.746094 400.21875 C 776.570312 390.65625 804.578125 380.769531 825.996094 370.828125 C 852.535156 358.507812 868.871094 346.152344 874.539062 334.097656 C 874.882812 333.378906 875.742188 333.066406 876.464844 333.40625 C 877.183594 333.746094 877.496094 334.605469 877.15625 335.332031 C 871.1875 348.011719 854.382812 360.839844 827.203125 373.453125 C 805.644531 383.460938 777.488281 393.402344 743.511719 403.007812 C 685.71875 419.339844 630.328125 429.175781 629.773438 429.269531 C 629.691406 429.289062 629.605469 429.292969 629.523438 429.292969 " fill-opacity="1" fill-rule="nonzero"/><path fill="#f09e79" d="M 1005.808594 506.824219 L 986.0625 516.359375 L 978.710938 494.785156 L 977.75 491.964844 L 973.671875 479.996094 L 972.984375 477.984375 L 967.664062 462.371094 L 980.597656 468.363281 L 994.027344 474.585938 L 995.480469 478.570312 L 998.367188 486.453125 L 999.371094 489.207031 L 1005.808594 506.824219 " fill-opacity="1" fill-rule="nonzero"/><path fill="#d97f67" d="M 998.367188 486.453125 C 992.84375 488.566406 982.761719 490.878906 977.75 491.964844 L 973.671875 479.996094 L 972.984375 477.984375 L 980.597656 468.363281 L 994.027344 474.585938 L 995.480469 478.570312 L 998.367188 486.453125 " fill-opacity="1" fill-rule="nonzero"/><path fill="#f09e79" d="M 906.957031 488.140625 L 906.660156 493.3125 L 906.101562 502.941406 L 905.925781 505.984375 L 904.714844 526.925781 L 880.285156 526.925781 L 883.867188 505.984375 L 884.664062 501.320312 L 886.679688 489.511719 L 887.9375 482.167969 L 906.957031 488.140625 " fill-opacity="1" fill-rule="nonzero"/><path fill="#d97f67" d="M 906.957031 488.140625 L 906.660156 493.3125 L 906.101562 502.941406 C 899.867188 502.773438 890.972656 501.964844 884.664062 501.320312 L 886.679688 489.511719 L 887.9375 482.167969 L 906.957031 488.140625 " fill-opacity="1" fill-rule="nonzero"/><path fill="#f5e3c6" d="M 914.28125 271.882812 C 914.28125 271.882812 911 310.464844 908.808594 320.683594 C 906.617188 330.894531 863.90625 453.457031 865.003906 488.640625 C 865.003906 488.640625 870.476562 499.992188 914.28125 498.855469 L 935.09375 431.898438 L 964.664062 492.042969 C 964.664062 492.042969 994.230469 492.042969 1008.46875 465.941406 L 961.378906 360.402344 C 961.378906 360.402344 975.449219 301.398438 962.472656 286.632812 C 943.539062 265.09375 914.28125 271.882812 914.28125 271.882812 " fill-opacity="1" fill-rule="nonzero"/><path fill="#d7ac89" d="M 937.007812 427.78125 L 936.242188 427.558594 L 947.25 389.539062 L 948.015625 389.757812 L 937.007812 427.78125 " fill-opacity="1" fill-rule="nonzero"/><path fill="#d7ac89" d="M 911.742188 315.828125 L 911.078125 315.378906 L 923.285156 297.371094 L 923.953125 297.820312 L 911.742188 315.828125 " fill-opacity="1" fill-rule="nonzero"/><path fill="#f5e3c6" d="M 967.84375 306.597656 L 954.035156 305.601562 L 952.433594 325.414062 L 965.640625 334.617188 " fill-opacity="1" fill-rule="nonzero"/><path fill="#d7ac89" d="M 965.414062 334.945312 L 952.019531 325.605469 L 952.035156 325.378906 L 953.671875 305.171875 L 967.871094 306.199219 L 967.816406 307 L 954.40625 306.027344 L 952.851562 325.214844 L 965.871094 334.289062 L 965.414062 334.945312 " fill-opacity="1" fill-rule="nonzero"/><path fill="#e6c999" d="M 905.855469 537.253906 C 905.855469 537.253906 907.648438 545.121094 904.714844 545.683594 C 901.78125 546.238281 889.484375 545.53125 889.484375 545.53125 L 888.800781 543.53125 C 888.800781 543.53125 876.933594 546.695312 874.808594 548.316406 C 872.683594 549.933594 852.390625 551.960938 846.214844 548.269531 C 840.042969 544.574219 846.292969 540.652344 846.292969 540.652344 L 905.855469 537.253906 " fill-opacity="1" fill-rule="nonzero"/><path fill="#f5e3c6" d="M 907.875 522.273438 C 907.875 522.273438 909.296875 532.953125 905.601562 539.125 C 901.910156 545.300781 893.988281 540.421875 884.121094 542.898438 C 874.253906 545.382812 858.261719 550.84375 844.847656 544.269531 C 844.847656 544.269531 842.417969 541.082031 846.796875 536.90625 C 851.175781 532.730469 863.601562 532.503906 867.972656 528.328125 C 872.351562 524.152344 878.855469 518.355469 881.664062 518.734375 C 884.472656 519.117188 884.09375 521.925781 888.644531 523.492188 C 893.203125 525.058594 908.761719 515.722656 907.875 522.273438 " fill-opacity="1" fill-rule="nonzero"/><path fill="#e6c999" d="M 1010.011719 516.421875 C 1010.011719 516.421875 1014.292969 522.488281 1011.992188 523.988281 C 1009.6875 525.488281 998.980469 529.1875 998.980469 529.1875 L 997.703125 527.722656 C 997.703125 527.722656 988.710938 534.566406 987.472656 536.6875 C 986.230469 538.808594 969.675781 547.625 963.132812 546.640625 C 956.589844 545.65625 960.535156 540.136719 960.535156 540.136719 L 1010.011719 516.421875 " fill-opacity="1" fill-rule="nonzero"/><path fill="#f5e3c6" d="M 1006.496094 502.976562 C 1006.496094 502.976562 1011.4375 511.5625 1010.453125 518.101562 C 1009.46875 524.648438 1001.023438 523.261719 993.496094 528.824219 C 985.96875 534.382812 974.28125 544.625 960.574219 543.71875 C 960.574219 543.71875 957.390625 541.855469 959.65625 536.773438 C 961.917969 531.691406 972.402344 527.152344 974.667969 522.070312 C 976.929688 516.988281 980.4375 509.789062 982.960938 509.128906 C 985.480469 508.46875 986.140625 510.992188 990.5625 510.730469 C 994.984375 510.472656 1004.957031 497.089844 1006.496094 502.976562 " fill-opacity="1" fill-rule="nonzero"/><path fill="#f09e79" d="M 960.707031 134.796875 L 959.589844 178.453125 L 940.558594 180.695312 L 940.558594 150.46875 L 953.554688 140.363281 L 960.707031 134.796875 " fill-opacity="1" fill-rule="nonzero"/><path fill="#d97f67" d="M 958.238281 143.507812 C 957.921875 150.890625 945.769531 159.265625 940.558594 162.519531 L 940.558594 150.46875 L 953.554688 140.363281 C 956.394531 140.035156 958.355469 140.777344 958.238281 143.507812 " fill-opacity="1" fill-rule="nonzero"/><path fill="#f09e79" d="M 961.824219 143.753906 C 961.398438 144.179688 960.9375 144.601562 960.445312 145.015625 C 959.648438 145.6875 958.777344 146.332031 957.863281 146.953125 C 957.601562 147.128906 957.335938 147.300781 957.070312 147.472656 C 949.898438 152.070312 940.558594 154.945312 940.558594 154.945312 C 940.558594 154.945312 927.820312 160.515625 926.007812 153.828125 C 925.945312 153.597656 925.503906 150.589844 925.429688 150.476562 C 925.417969 150.46875 925.40625 150.453125 925.394531 150.441406 C 925.136719 150.164062 924.007812 149.609375 923.734375 149.070312 C 922.890625 147.378906 924.019531 146.535156 924.019531 146.535156 C 924.019531 146.535156 922.507812 144.769531 923.773438 143.390625 C 923.84375 143.3125 923.925781 143.230469 924.019531 143.152344 C 924.542969 142.714844 925.621094 139.304688 925.621094 139.304688 C 925.621094 139.304688 919.777344 137.339844 922.019531 135.101562 C 924.257812 132.859375 927.125 130.320312 927.125 119.125 C 927.125 110.511719 933.089844 105.214844 935.84375 103.234375 C 936.664062 102.632812 937.203125 102.335938 937.203125 102.335938 C 944.980469 99.742188 950.878906 104.28125 954.46875 108.558594 C 957.078125 111.675781 958.46875 114.648438 958.46875 114.648438 C 958.46875 114.648438 959.210938 116.296875 960.160156 118.839844 C 962.703125 125.648438 966.722656 138.859375 961.824219 143.753906 " fill-opacity="1" fill-rule="nonzero"/><path fill="#1d303f" d="M 932.484375 122.285156 C 933.199219 122.285156 933.78125 123.15625 933.78125 124.234375 C 933.78125 125.308594 933.199219 126.183594 932.484375 126.183594 C 931.761719 126.183594 931.179688 125.308594 931.179688 124.234375 C 931.179688 123.15625 931.761719 122.285156 932.484375 122.285156 " fill-opacity="1" fill-rule="nonzero"/><path fill="#1d303f" d="M 937.628906 120.792969 C 937.519531 120.792969 937.40625 120.765625 937.300781 120.714844 C 934.449219 119.226562 930.855469 119.195312 930.820312 119.195312 C 930.429688 119.191406 930.121094 118.875 930.125 118.488281 C 930.125 118.105469 930.4375 117.789062 930.824219 117.789062 C 930.824219 117.789062 930.824219 117.792969 930.824219 117.792969 C 930.988281 117.792969 934.789062 117.828125 937.949219 119.472656 C 938.292969 119.652344 938.425781 120.074219 938.25 120.414062 C 938.125 120.65625 937.878906 120.792969 937.628906 120.792969 " fill-opacity="1" fill-rule="nonzero"/><path fill="#d97f67" d="M 955.4375 137.703125 C 955.394531 137.703125 955.355469 137.691406 955.320312 137.664062 C 955.230469 137.597656 955.214844 137.472656 955.273438 137.382812 C 957.617188 134.195312 957.746094 132.675781 957.449219 131.964844 C 957.199219 131.386719 956.636719 131.300781 956.613281 131.296875 C 956.503906 131.285156 956.425781 131.179688 956.4375 131.074219 C 956.453125 130.964844 956.554688 130.886719 956.664062 130.898438 C 956.699219 130.90625 957.472656 131.007812 957.808594 131.800781 C 958.3125 132.972656 957.570312 134.929688 955.601562 137.621094 C 955.558594 137.675781 955.5 137.703125 955.4375 137.703125 " fill-opacity="1" fill-rule="nonzero"/><path fill="#d97f67" d="M 956.371094 136.335938 C 956.265625 136.335938 956.175781 136.25 956.171875 136.140625 C 956.113281 133.367188 954.816406 133.101562 954.800781 133.097656 C 954.695312 133.078125 954.621094 132.972656 954.644531 132.863281 C 954.660156 132.757812 954.761719 132.683594 954.871094 132.703125 C 954.9375 132.71875 956.503906 133.039062 956.574219 136.132812 C 956.578125 136.242188 956.484375 136.332031 956.375 136.335938 C 956.375 136.335938 956.371094 136.335938 956.371094 136.335938 " fill-opacity="1" fill-rule="nonzero"/><path fill="#d97f67" d="M 925.621094 138.703125 C 925.53125 138.703125 925.449219 138.644531 925.425781 138.554688 C 925.074219 137.144531 924.09375 137.296875 924.054688 137.300781 C 923.945312 137.316406 923.839844 137.242188 923.824219 137.132812 C 923.804688 137.027344 923.878906 136.921875 923.984375 136.902344 C 924 136.902344 925.375 136.695312 925.816406 138.453125 C 925.84375 138.558594 925.777344 138.671875 925.671875 138.699219 C 925.652344 138.703125 925.636719 138.703125 925.621094 138.703125 " fill-opacity="1" fill-rule="nonzero"/><path fill="#d97f67" d="M 937.238281 136.992188 C 937.179688 137.929688 935.886719 138.617188 934.347656 138.527344 C 932.808594 138.4375 931.605469 137.601562 931.660156 136.664062 C 931.714844 135.722656 933.007812 135.035156 934.546875 135.125 C 936.089844 135.214844 937.292969 136.050781 937.238281 136.992188 " fill-opacity="1" fill-rule="nonzero"/><path fill="#a4b0c8" d="M 939.851562 177.332031 C 939.851562 177.332031 954.3125 178.539062 960.339844 172.511719 C 963.042969 169.808594 971.9375 192.324219 971.421875 218.019531 C 970.789062 249.535156 963.042969 287.390625 963.042969 287.390625 C 947.355469 282.722656 931.414062 280.417969 913.214844 285.789062 C 913.214844 285.789062 914.230469 246.828125 909.410156 229.957031 C 904.589844 213.085938 939.851562 177.332031 939.851562 177.332031 " fill-opacity="1" fill-rule="nonzero"/><path fill="#8697ba" d="M 954.648438 231.535156 L 954.421875 230.980469 C 954.53125 230.933594 965.550781 226.351562 968.269531 220.324219 L 968.820312 220.574219 C 967.632812 223.203125 964.882812 225.847656 960.648438 228.4375 C 957.511719 230.351562 954.679688 231.523438 954.648438 231.535156 " fill-opacity="1" fill-rule="nonzero"/><path fill="#8697ba" d="M 933.164062 254.25 C 923.714844 254.25 915.316406 250.992188 915.203125 250.949219 L 915.421875 250.386719 C 915.574219 250.449219 930.679688 256.304688 943.035156 252.183594 L 943.226562 252.753906 C 939.953125 253.84375 936.492188 254.25 933.164062 254.25 " fill-opacity="1" fill-rule="nonzero"/><path fill="#8697ba" d="M 931.214844 270.015625 C 924.167969 270.015625 919.316406 268.789062 919.242188 268.769531 L 919.390625 268.1875 C 919.5 268.214844 930.285156 270.9375 943.066406 268.183594 L 943.191406 268.769531 C 938.867188 269.703125 934.761719 270.015625 931.214844 270.015625 " fill-opacity="1" fill-rule="nonzero"/><path fill="#d97f67" d="M 944.367188 199.484375 C 948.402344 195.96875 953.90625 194.621094 959.101562 195.929688 C 965.5625 197.566406 972.371094 201.421875 968.445312 210.542969 C 965.945312 216.359375 959.839844 227.15625 949.835938 227.15625 C 945.402344 227.15625 941.246094 223.976562 937.988281 220.433594 C 933.683594 215.746094 934.125 208.417969 938.917969 204.234375 L 944.367188 199.484375 " fill-opacity="1" fill-rule="nonzero"/><g clip-path="url(#474cd653fe)"><path fill="#9c4c31" d="M 935.824219 103.285156 C 936.945312 98.808594 939.792969 99.773438 945.035156 98.980469 C 950.679688 98.125 967.699219 97.535156 973.019531 102.335938 C 979.230469 107.941406 981.976562 115.769531 984.214844 124.722656 C 986.453125 133.679688 995.023438 139.632812 996.527344 142.632812 C 998.765625 147.109375 996.527344 153.828125 1002.121094 158.304688 C 1007.722656 162.78125 1015.558594 161.664062 1014.4375 169.496094 C 1013.316406 177.332031 1007.722656 179.570312 1007.722656 179.570312 C 1007.722656 179.570312 1011.703125 191.910156 1003.9375 197.488281 C 986.300781 210.164062 984.785156 195.011719 976.929688 203.273438 C 972.023438 208.445312 966.421875 196.417969 963.890625 189.75 C 961.570312 183.617188 959.15625 176.230469 958.605469 170.761719 C 957.488281 159.570312 961.269531 145.429688 952.3125 133.121094 C 952.3125 133.121094 950.808594 131.617188 949.8125 128.269531 C 948.058594 122.367188 945.367188 116.785156 941.851562 111.734375 L 935.824219 103.285156 " fill-opacity="1" fill-rule="nonzero"/></g><path fill="#ad5339" d="M 965.765625 105.316406 C 967.449219 108.039062 969.027344 110.792969 970.542969 113.601562 C 972.050781 116.410156 973.480469 119.265625 974.75 122.195312 C 975.382812 123.664062 975.976562 125.148438 976.492188 126.667969 C 977.003906 128.1875 977.457031 129.738281 977.707031 131.34375 C 977.773438 131.746094 977.820312 132.152344 977.847656 132.5625 C 977.878906 132.984375 977.886719 133.367188 977.898438 133.765625 L 977.992188 136.148438 C 978.058594 137.730469 978.136719 139.308594 978.335938 140.867188 C 978.53125 142.421875 978.84375 143.960938 979.328125 145.449219 C 979.566406 146.195312 979.839844 146.925781 980.160156 147.644531 C 980.46875 148.359375 980.816406 149.0625 981.203125 149.75 C 982.707031 152.511719 984.652344 155.019531 986.71875 157.410156 C 987.757812 158.605469 988.828125 159.773438 989.945312 160.890625 C 991.058594 162.015625 992.21875 163.085938 993.414062 164.132812 C 994.007812 164.660156 994.609375 165.179688 995.191406 165.738281 C 995.769531 166.292969 996.328125 166.898438 996.757812 167.613281 C 996.964844 167.96875 997.136719 168.34375 997.285156 168.730469 C 997.417969 169.121094 997.53125 169.515625 997.609375 169.910156 C 997.773438 170.707031 997.84375 171.511719 997.886719 172.308594 C 997.894531 172.4375 997.800781 172.542969 997.675781 172.550781 C 997.550781 172.558594 997.441406 172.460938 997.433594 172.339844 L 997.433594 172.335938 C 997.386719 171.550781 997.308594 170.765625 997.144531 170.007812 C 997.066406 169.628906 996.957031 169.253906 996.832031 168.898438 C 996.691406 168.539062 996.53125 168.191406 996.332031 167.871094 C 995.933594 167.214844 995.410156 166.644531 994.839844 166.105469 C 994.269531 165.570312 993.664062 165.054688 993.0625 164.535156 C 991.859375 163.496094 990.675781 162.421875 989.542969 161.296875 C 988.40625 160.175781 987.316406 159.007812 986.261719 157.8125 C 984.160156 155.417969 982.164062 152.894531 980.59375 150.085938 C 980.203125 149.382812 979.839844 148.664062 979.511719 147.929688 C 979.179688 147.195312 978.886719 146.441406 978.636719 145.675781 C 978.121094 144.144531 977.785156 142.558594 977.574219 140.964844 C 977.359375 139.371094 977.261719 137.773438 977.183594 136.183594 L 977.078125 133.804688 C 977.039062 133 977.011719 132.246094 976.875 131.476562 C 976.628906 129.949219 976.179688 128.433594 975.667969 126.949219 C 975.15625 125.460938 974.566406 124 973.929688 122.554688 C 972.65625 119.664062 971.222656 116.835938 969.707031 114.054688 C 968.191406 111.277344 966.597656 108.527344 964.921875 105.851562 L 964.917969 105.847656 C 964.773438 105.613281 964.839844 105.300781 965.074219 105.15625 C 965.308594 105.007812 965.617188 105.082031 965.761719 105.316406 L 965.765625 105.316406 " fill-opacity="1" fill-rule="nonzero"/><path fill="#ad5339" d="M 955.367188 108.125 C 957.488281 111.714844 959.453125 115.371094 961.324219 119.082031 C 963.183594 122.796875 964.9375 126.570312 966.496094 130.429688 C 968.050781 134.28125 969.433594 138.21875 970.394531 142.285156 C 970.871094 144.320312 971.234375 146.386719 971.371094 148.484375 C 971.441406 149.527344 971.441406 150.597656 971.371094 151.628906 C 971.320312 152.671875 971.238281 153.710938 971.140625 154.746094 C 970.945312 156.820312 970.660156 158.882812 970.289062 160.929688 C 969.933594 162.980469 969.484375 165.007812 969.125 167.035156 C 968.757812 169.066406 968.511719 171.113281 968.609375 173.15625 C 968.695312 175.203125 969.117188 177.226562 969.722656 179.191406 C 969.882812 179.675781 970.039062 180.175781 970.21875 180.648438 C 970.402344 181.125 970.597656 181.601562 970.824219 182.058594 C 971.273438 182.976562 971.808594 183.851562 972.410156 184.683594 C 973.613281 186.339844 975.089844 187.796875 976.710938 189.058594 C 978.335938 190.328125 980.101562 191.40625 981.945312 192.332031 C 983.789062 193.246094 985.71875 194.035156 987.691406 194.601562 L 987.695312 194.601562 C 987.773438 194.621094 987.816406 194.699219 987.796875 194.777344 C 987.773438 194.847656 987.695312 194.894531 987.625 194.871094 C 985.609375 194.316406 983.671875 193.539062 981.796875 192.628906 C 979.929688 191.714844 978.132812 190.636719 976.476562 189.363281 C 974.820312 188.09375 973.304688 186.625 972.058594 184.9375 C 971.433594 184.097656 970.878906 183.203125 970.410156 182.261719 C 970.171875 181.789062 969.96875 181.308594 969.773438 180.816406 C 969.585938 180.328125 969.425781 179.835938 969.257812 179.335938 C 968.625 177.351562 968.179688 175.285156 968.070312 173.1875 C 967.957031 171.082031 968.191406 168.984375 968.542969 166.9375 C 968.890625 164.886719 969.320312 162.859375 969.660156 160.824219 C 970.007812 158.785156 970.273438 156.738281 970.453125 154.683594 C 970.539062 153.65625 970.613281 152.628906 970.65625 151.597656 C 970.714844 150.5625 970.710938 149.554688 970.636719 148.53125 C 970.492188 146.492188 970.125 144.464844 969.644531 142.464844 C 968.671875 138.464844 967.277344 134.566406 965.707031 130.746094 C 964.136719 126.929688 962.375 123.183594 960.496094 119.496094 C 958.617188 115.820312 956.632812 112.179688 954.511719 108.644531 L 954.507812 108.636719 C 954.363281 108.402344 954.441406 108.097656 954.679688 107.953125 C 954.914062 107.8125 955.21875 107.886719 955.363281 108.125 L 955.367188 108.125 " fill-opacity="1" fill-rule="nonzero"/><path fill="#ad5339" d="M 980.347656 165.011719 C 980.300781 165.269531 980.277344 165.605469 980.273438 165.914062 C 980.261719 166.230469 980.273438 166.550781 980.296875 166.867188 C 980.332031 167.503906 980.421875 168.144531 980.542969 168.773438 C 980.800781 170.039062 981.1875 171.28125 981.699219 172.476562 C 982.207031 173.671875 982.816406 174.832031 983.507812 175.941406 C 984.203125 177.046875 984.980469 178.105469 985.800781 179.128906 C 987.472656 181.152344 989.347656 183.011719 991.363281 184.710938 C 993.382812 186.410156 995.527344 187.960938 997.75 189.398438 C 997.820312 189.445312 997.84375 189.542969 997.796875 189.621094 C 997.75 189.691406 997.648438 189.714844 997.578125 189.667969 C 995.316406 188.273438 993.125 186.761719 991.054688 185.09375 C 988.980469 183.417969 987.042969 181.578125 985.292969 179.550781 C 984.433594 178.527344 983.617188 177.464844 982.878906 176.34375 C 982.140625 175.21875 981.492188 174.039062 980.933594 172.804688 C 980.382812 171.578125 979.945312 170.289062 979.648438 168.960938 C 979.503906 168.292969 979.394531 167.621094 979.335938 166.9375 C 979.3125 166.59375 979.289062 166.25 979.292969 165.902344 C 979.296875 165.550781 979.304688 165.222656 979.359375 164.832031 C 979.398438 164.554688 979.652344 164.367188 979.925781 164.40625 C 980.199219 164.441406 980.390625 164.699219 980.351562 164.96875 C 980.351562 164.972656 980.351562 164.976562 980.351562 164.976562 L 980.347656 165.011719 " fill-opacity="1" fill-rule="nonzero"/><path fill="#f09e79" d="M 951.753906 131.441406 C 951.753906 131.441406 953.992188 126.960938 957.347656 126.960938 C 960.710938 126.960938 961.824219 132.558594 958.46875 137.035156 C 955.109375 141.515625 955.109375 142.632812 951.753906 141.515625 C 948.394531 140.394531 951.753906 131.441406 951.753906 131.441406 " fill-opacity="1" fill-rule="nonzero"/><path fill="#f09e79" d="M 962.046875 199.535156 C 963.09375 200.90625 969.652344 206.253906 963.167969 218.253906 C 961.992188 220.421875 960.195312 222.128906 958.914062 223.769531 C 958.445312 224.371094 958.003906 224.929688 957.597656 225.445312 C 957.390625 225.707031 957.1875 225.960938 956.996094 226.195312 C 956.179688 227.222656 955.542969 227.988281 955.179688 228.378906 C 952.53125 231.203125 948.996094 235.378906 945.761719 240.527344 C 939.519531 250.445312 931.257812 258.964844 927.039062 270.285156 C 922.8125 281.601562 911.597656 292.742188 900.90625 302.0625 C 890.226562 311.375 882.339844 317.59375 880.605469 326.023438 C 878.863281 334.457031 878.714844 333.140625 873.804688 338.164062 C 871.164062 340.867188 865.800781 338.109375 862.320312 336.160156 C 858.921875 334.257812 856.953125 330.328125 857.464844 326.425781 C 857.761719 324.152344 858.570312 321.941406 860.457031 320.980469 C 865.050781 318.640625 871.082031 318.515625 875.007812 313.085938 C 878.929688 307.652344 892.570312 283.304688 901.738281 274.078125 C 904.785156 271.011719 908.046875 266.460938 911.148438 261.472656 C 917.382812 251.441406 922.972656 239.644531 924.851562 234.605469 C 925.472656 232.921875 926.292969 230.917969 927.230469 228.742188 C 928.152344 226.621094 929.183594 224.34375 930.265625 222.058594 C 931.257812 219.972656 932.285156 217.886719 933.308594 215.910156 C 933.746094 215.058594 934.183594 214.234375 934.613281 213.441406 C 934.945312 212.828125 935.269531 212.242188 935.589844 211.671875 L 935.59375 211.667969 C 936.640625 209.8125 937.632812 208.191406 938.503906 206.941406 C 941.804688 202.226562 957.601562 193.714844 962.046875 199.535156 " fill-opacity="1" fill-rule="nonzero"/><path fill="#d97f67" d="M 926.40625 146.632812 L 924.386719 146.632812 C 924.277344 146.632812 924.183594 146.542969 924.183594 146.429688 C 924.183594 146.320312 924.277344 146.230469 924.386719 146.230469 L 926.40625 146.230469 C 926.515625 146.230469 926.605469 146.320312 926.605469 146.429688 C 926.605469 146.542969 926.515625 146.632812 926.40625 146.632812 " fill-opacity="1" fill-rule="nonzero"/><path fill="#7a3c27" d="M 687.570312 484.351562 C 687.570312 484.351562 698.300781 514.066406 700.777344 517.367188 C 703.253906 520.671875 706.554688 529.746094 699.125 533.875 C 691.699219 538.003906 687.570312 538.003906 685.09375 541.300781 C 682.617188 544.605469 689.222656 551.207031 695 547.90625 C 699.445312 545.367188 709.75 533.554688 714.269531 528.230469 C 715.660156 526.589844 716.246094 524.417969 715.871094 522.300781 L 709.859375 488.476562 L 687.570312 484.351562 " fill-opacity="1" fill-rule="nonzero"/><g clip-path="url(#c2ce5add35)"><path fill="#9c4c31" d="M 766.8125 427.394531 C 756.90625 455.460938 737.921875 461.242188 737.921875 461.242188 C 737.921875 461.242188 742.046875 503.335938 737.097656 512.414062 C 733.394531 519.203125 740.769531 525.535156 744.722656 528.292969 C 746.261719 529.367188 747.371094 530.949219 747.882812 532.753906 C 749.742188 539.367188 753.707031 554.953125 751.132812 559.464844 C 747.828125 565.238281 735.445312 566.886719 734.617188 564.414062 C 733.792969 561.9375 736.265625 555.335938 740.398438 554.507812 C 744.523438 553.683594 742.875 539.652344 740.398438 536.355469 C 737.921875 533.050781 720.589844 526.445312 718.113281 520.667969 C 717.25 518.652344 715.679688 514.929688 713.832031 510.832031 L 713.828125 510.824219 C 710.378906 503.175781 705.941406 494.21875 703.253906 492.609375 C 700.910156 491.199219 695.382812 488.996094 689.21875 488.863281 L 689.214844 488.863281 C 684.527344 488.761719 679.46875 489.863281 675.191406 493.429688 C 665.285156 501.683594 662.808594 506.636719 663.632812 523.96875 C 664.460938 541.304688 663.632812 547.082031 663.632812 547.082031 C 663.632812 547.082031 651.253906 548.734375 648.777344 547.082031 C 646.300781 545.429688 651.253906 540.476562 654.554688 540.476562 C 657.855469 540.476562 652.082031 525.617188 651.253906 514.890625 C 650.429688 504.160156 635.570312 493.429688 628.960938 496.734375 C 622.363281 500.03125 629.792969 507.460938 619.886719 509.109375 C 609.980469 510.761719 595.945312 525.617188 590.171875 528.101562 C 584.394531 530.578125 573.664062 526.445312 577.789062 523.140625 C 581.917969 519.84375 589.863281 515.683594 592.648438 511.589844 C 594.019531 509.5625 603.378906 505.8125 606.683594 500.859375 C 609.980469 495.90625 611.632812 491.777344 609.980469 479.394531 C 608.75 470.144531 609.359375 461.820312 606.992188 456.480469 C 606.191406 454.664062 605.046875 453.203125 603.378906 452.160156 C 601.535156 451.007812 600.207031 449.980469 599.066406 449.089844 C 596.132812 446.777344 594.472656 445.324219 588.519531 444.734375 C 581.230469 444.003906 568.816406 444.796875 565.359375 433.027344 C 565.140625 432.28125 564.957031 431.484375 564.8125 430.632812 C 564.523438 428.90625 565.46875 427.21875 567.078125 426.527344 C 567.660156 426.273438 568.324219 426 569.046875 425.710938 C 572.273438 424.421875 576.652344 422.890625 580.265625 422.445312 C 586.871094 421.617188 586.042969 410.0625 592.648438 410.0625 C 599.246094 410.0625 609.15625 405.933594 622.363281 420.792969 C 623.113281 421.632812 624.011719 422.460938 625.039062 423.261719 C 627.554688 425.230469 630.867188 427.082031 634.730469 428.808594 C 657.097656 438.789062 697.90625 444.410156 709.855469 443.078125 C 716.421875 442.351562 722.234375 448.03125 731.320312 443.078125 C 740.398438 438.125 758.0625 423.019531 761.035156 410.886719 C 763.605469 400.386719 764.246094 398.78125 764.246094 398.78125 C 764.246094 398.78125 776.710938 399.335938 766.8125 427.394531 " fill-opacity="1" fill-rule="nonzero"/></g><path fill="#7a3c27" d="M 634.726562 428.808594 C 628.417969 436.109375 615.867188 450.085938 606.992188 456.480469 C 606.191406 454.664062 605.046875 453.203125 603.378906 452.15625 C 601.535156 451.007812 600.203125 449.984375 599.066406 449.089844 C 605.308594 442.996094 617.855469 430.695312 625.039062 423.261719 C 627.554688 425.234375 630.867188 427.082031 634.726562 428.808594 " fill-opacity="1" fill-rule="nonzero"/><path fill="#824029" d="M 604.355469 434.359375 C 602.753906 434.359375 601.402344 434.046875 600.667969 433.289062 C 600.160156 432.765625 599.722656 431.8125 600.535156 430.277344 C 603.582031 424.484375 600.519531 414.488281 600.488281 414.390625 L 601.714844 414.007812 C 601.847656 414.4375 604.972656 424.609375 601.671875 430.875 C 601.125 431.914062 601.476562 432.273438 601.589844 432.394531 C 602.828125 433.675781 608.367188 433.058594 612.175781 431.21875 C 614.222656 430.226562 615.367188 429.0625 615.238281 428.09375 C 614.628906 423.515625 610.285156 418.191406 610.238281 418.140625 L 611.234375 417.324219 C 611.421875 417.554688 615.851562 422.984375 616.511719 427.921875 C 616.722656 429.515625 615.382812 431.09375 612.734375 432.375 C 610.472656 433.46875 607.066406 434.359375 604.355469 434.359375 " fill-opacity="1" fill-rule="nonzero"/><g clip-path="url(#20a34f21cc)"><path fill="#1d303f" d="M 566.0625 432.847656 C 565.820312 432.945312 565.585938 433.007812 565.359375 433.027344 C 565.140625 432.28125 564.957031 431.484375 564.8125 430.632812 C 564.523438 428.90625 565.46875 427.21875 567.078125 426.527344 C 567.660156 426.273438 568.324219 426 569.046875 425.710938 C 569.128906 427.972656 568.832031 431.742188 566.0625 432.847656 " fill-opacity="1" fill-rule="nonzero"/></g><path fill="#1d303f" d="M 591.917969 420.421875 C 591.730469 420.421875 591.550781 420.320312 591.460938 420.140625 C 591.085938 419.386719 590.625 418.929688 590.085938 418.796875 C 589.3125 418.601562 588.582031 419.109375 588.574219 419.117188 C 588.351562 419.277344 588.03125 419.226562 587.871094 419.003906 C 587.707031 418.777344 587.757812 418.464844 587.984375 418.300781 C 588.027344 418.265625 589.09375 417.511719 590.324219 417.816406 C 591.167969 418.023438 591.855469 418.65625 592.367188 419.695312 C 592.488281 419.945312 592.386719 420.25 592.140625 420.371094 C 592.066406 420.410156 591.992188 420.421875 591.917969 420.421875 " fill-opacity="1" fill-rule="nonzero"/><path fill="#1d303f" d="M 570.078125 440.09375 C 569.855469 440.09375 569.648438 439.941406 569.589844 439.714844 C 569.523438 439.441406 569.683594 439.167969 569.953125 439.097656 L 582.09375 435.992188 C 582.363281 435.929688 582.640625 436.089844 582.707031 436.359375 C 582.777344 436.625 582.617188 436.902344 582.347656 436.96875 L 570.203125 440.074219 C 570.160156 440.085938 570.121094 440.09375 570.078125 440.09375 " fill-opacity="1" fill-rule="nonzero"/></svg>