<svg xmlns="http://www.w3.org/2000/svg" xmlns:xlink="http://www.w3.org/1999/xlink" width="1920" zoomAndPan="magnify" viewBox="0 0 1440 809.999993" height="1080" preserveAspectRatio="xMidYMid meet" version="1.0"><defs><clipPath id="6b0ed650ed"><path d="M 432.710938 342 L 881.40625 342 L 881.40625 562 L 432.710938 562 Z M 432.710938 342 " clip-rule="nonzero"/></clipPath><clipPath id="d299e0374c"><path d="M 437 527 L 875 527 L 875 565.296875 L 437 565.296875 Z M 437 527 " clip-rule="nonzero"/></clipPath></defs><g clip-path="url(#6b0ed650ed)"><path fill="#dae2ed" d="M 443.386719 547.257812 C 440.378906 544.109375 432.652344 535.992188 432.710938 525.210938 C 432.785156 511.320312 445.746094 507.703125 452.734375 491.816406 C 463.316406 467.746094 444.078125 452.078125 454.0625 438.382812 C 466.546875 421.289062 501.113281 439.46875 516.136719 420.351562 C 525.707031 408.164062 517.644531 393.148438 530.148438 383.617188 C 538.894531 376.953125 550.347656 378.585938 552.839844 378.941406 C 567.769531 381.078125 577.066406 392.972656 580.207031 396.972656 C 588.25 407.265625 586.707031 412.9375 592.222656 415.007812 C 601.0625 418.34375 616.804688 408.164062 623.585938 394.304688 C 632.191406 376.691406 621.253906 363.511719 631.59375 351.554688 C 636.445312 345.949219 644.097656 342.78125 650.953125 342.875 C 665.617188 343.070312 668.324219 358.085938 682.316406 362.914062 C 704.980469 370.722656 719.449219 338.742188 745.046875 343.539062 C 765.554688 347.390625 764.019531 369.351562 793.773438 379.605469 C 810.117188 385.238281 816.121094 380.523438 825.140625 388.296875 C 832.5 394.640625 835.488281 407.085938 841.152344 431.710938 C 846.144531 453.378906 845.996094 460.464844 853.167969 466.4375 C 861.410156 473.304688 867.667969 469.011719 874.523438 475.789062 C 884.027344 485.179688 882.707031 504.011719 876.527344 516.53125 C 875.460938 518.6875 870.296875 528.671875 855.171875 537.238281 C 836.882812 547.59375 819.050781 547.359375 793.773438 546.589844 C 755.253906 545.410156 735.988281 544.820312 729.03125 543.921875 C 627.5 530.796875 479.808594 585.488281 443.386719 547.257812 " fill-opacity="1" fill-rule="nonzero"/></g><path fill="#ffffff" d="M 752.855469 535.445312 C 747.058594 535.042969 740.363281 534.886719 732.363281 535.230469 C 714.664062 536 715.160156 538.15625 695.664062 539.910156 C 689.761719 540.433594 684.347656 540.863281 679.386719 541.183594 C 683.863281 534.894531 687.375 529.015625 690.136719 523.582031 C 690.472656 522.914062 690.800781 522.269531 691.121094 521.621094 C 695.4375 512.71875 697.730469 505.0625 698.996094 498.800781 C 699.988281 493.90625 700.496094 489.191406 703.15625 481.871094 C 703.464844 481.027344 703.773438 480.222656 704.089844 479.4375 C 706.984375 482.527344 709.054688 483.960938 711.675781 483.804688 C 714.769531 483.617188 716.453125 481.367188 719.523438 477.363281 C 720.300781 482.042969 721.746094 486.558594 724.507812 491.078125 C 726.765625 494.761719 729.039062 497.054688 730.144531 498.199219 C 734.332031 502.550781 739.839844 509.203125 746.796875 519.925781 C 747.226562 520.582031 747.660156 521.246094 748.089844 521.933594 C 745.691406 525.230469 745.578125 526.5625 746.011719 527.144531 C 746.046875 527.179688 746.085938 527.226562 746.121094 527.265625 C 747.535156 528.894531 748.960938 530.582031 750.382812 532.335938 C 751.238281 533.386719 752.050781 534.417969 752.855469 535.445312 " fill-opacity="1" fill-rule="nonzero"/><path fill="#ffffff" d="M 849.855469 527.835938 C 849.855469 527.855469 849.835938 527.863281 849.835938 527.882812 C 848.476562 530.648438 840.386719 527.996094 831.140625 527.882812 C 818.3125 527.734375 811.289062 532.558594 801.78125 535.90625 C 790.308594 539.925781 782.5625 539.1875 772.46875 537.753906 C 770.839844 530.375 768.964844 524.367188 767.390625 519.886719 L 767.382812 519.886719 C 767.355469 519.804688 767.328125 519.71875 767.296875 519.644531 C 767.195312 519.355469 766.828125 518.324219 766.230469 516.75 C 763.703125 509.980469 757.097656 493.203125 750.382812 483.363281 C 749.730469 482.398438 747.882812 479.746094 746.386719 475.789062 C 745.878906 474.476562 745.484375 473.195312 745.1875 471.984375 C 745.1875 471.976562 745.1875 471.976562 745.1875 471.976562 C 745.214844 471.535156 745.242188 471.074219 745.269531 470.597656 C 745.8125 462.566406 746.882812 456.417969 748.089844 450.746094 C 751.394531 449.226562 754.683594 448.503906 757.734375 449.078125 C 766.933594 450.773438 766.699219 462.816406 778.414062 465.105469 C 785.917969 466.566406 790.691406 462.546875 795.105469 465.769531 C 799.085938 468.683594 801.089844 475.460938 799.113281 479.800781 C 797.753906 482.761719 794.859375 483.898438 795.328125 485.144531 C 795.929688 486.753906 800.703125 484.609375 803.785156 487.148438 C 806.996094 489.785156 805.058594 494.796875 808.234375 496.492188 C 809.359375 497.09375 809.734375 496.539062 813.347656 496.71875 C 814.875 496.792969 818.359375 496.953125 820.464844 497.835938 C 823.988281 499.296875 823.648438 502.738281 825.804688 506.691406 C 826.167969 507.367188 826.601562 508.042969 827.144531 508.734375 C 829.570312 511.867188 832.152344 512.652344 835.148438 513.710938 C 837.867188 514.667969 840.917969 515.859375 844.496094 519.203125 C 845.695312 520.328125 850.996094 525.304688 849.855469 527.835938 " fill-opacity="1" fill-rule="nonzero"/><path fill="#ffffff" d="M 685.929688 459.21875 C 683.722656 465.066406 681.746094 470.585938 679.714844 478.011719 C 678.035156 484.195312 677.109375 488.789062 676.753906 490.484375 C 675.460938 496.691406 673.183594 505.640625 669 519.015625 C 667.800781 518.632812 666.648438 518.238281 665.523438 517.835938 C 665.09375 519.597656 664.652344 521.359375 664.203125 523.121094 C 664.15625 523.300781 664.121094 523.488281 664.074219 523.65625 C 662.5 529.859375 660.871094 535.992188 659.203125 542.015625 C 636.914062 542.289062 628.230469 539.609375 622.246094 536.570312 C 619.558594 535.203125 615.765625 532.992188 609.726562 531.445312 C 594.027344 527.472656 580.523438 532.476562 580.355469 531.746094 C 580.28125 531.445312 582.519531 530.835938 586.039062 529.796875 C 590.058594 528.625 595.734375 526.917969 601.558594 524.546875 C 613.894531 519.542969 630.496094 512.800781 634.9375 499.164062 C 637.980469 489.773438 632.136719 486.660156 636.265625 478.460938 C 639.132812 472.742188 643.105469 472.003906 649.914062 467.542969 C 652.496094 465.855469 655.476562 463.644531 658.960938 460.429688 C 666.574219 453.398438 667.359375 450.117188 671.640625 449.742188 C 674.207031 449.519531 677.230469 450.425781 685.929688 459.21875 " fill-opacity="1" fill-rule="nonzero"/><path fill="#e56d13" d="M 596.136719 475.011719 C 595.5 478.789062 594.234375 483.324219 591.789062 488.050781 C 583.886719 503.328125 558.796875 517.742188 553.796875 519.558594 L 550.460938 517.433594 C 550.488281 517.273438 550.507812 517.125 550.507812 516.972656 C 550.554688 515.644531 549.703125 514.460938 550.5 513.410156 C 550.910156 512.886719 551.292969 512.960938 553.140625 512.316406 C 553.148438 512.304688 553.160156 512.304688 553.175781 512.304688 C 555.648438 511.433594 556.875 511.003906 557.511719 510.074219 C 557.71875 509.773438 558.382812 508.652344 557.605469 506.269531 C 560.089844 505.980469 563.667969 505.050781 566.296875 502.175781 C 567.402344 500.964844 569.3125 498.875 568.75 496.382812 C 568.574219 495.613281 568.199219 494.964844 567.730469 494.433594 C 569.433594 492.660156 571.113281 490.609375 572.636719 488.253906 C 574.886719 484.796875 576.320312 481.441406 577.238281 478.609375 L 567.777344 489.144531 C 567.804688 488.707031 567.804688 488.253906 567.75 487.804688 C 567.476562 485.707031 566.140625 483.570312 564.191406 482.800781 C 563.300781 482.453125 562.503906 482.480469 561.785156 482.613281 C 561.847656 482.519531 561.90625 482.417969 561.960938 482.324219 C 563.929688 478.910156 564.957031 475.628906 565.519531 472.96875 L 557.792969 481.542969 C 557.449219 480.054688 558.195312 477.945312 556.960938 476.679688 C 555.855469 475.554688 553.496094 475.386719 551.3125 475.988281 C 549.496094 476.492188 547.800781 477.53125 547.050781 479.015625 C 546.546875 480.027344 546.621094 480.972656 546.875 481.917969 C 547.3125 483.617188 548.324219 485.320312 547.5 487.476562 C 547.484375 487.515625 547.472656 487.550781 547.453125 487.597656 C 545.929688 491.320312 539.992188 493.691406 537.378906 491.828125 C 536.703125 491.339844 536.28125 490.597656 536.027344 489.828125 C 535.886719 489.464844 535.804688 489.082031 535.738281 488.734375 C 535.578125 487.796875 535.597656 487.019531 535.597656 486.914062 C 535.65625 485.359375 536.292969 484.449219 536.65625 483.625 C 536.871094 483.136719 537.003906 482.679688 536.824219 482.136719 C 536.496094 481.121094 535.296875 480.269531 533.773438 479.78125 C 534.632812 479.191406 535.476562 478.574219 536.308594 477.925781 C 536.554688 477.738281 536.796875 477.542969 537.039062 477.34375 C 537.285156 477.148438 537.527344 476.941406 537.78125 476.746094 C 538.003906 476.550781 538.238281 476.351562 538.453125 476.15625 C 538.652344 475.976562 538.847656 475.808594 539.035156 475.640625 C 539.53125 475.179688 540.019531 474.722656 540.476562 474.242188 C 540.703125 474.019531 540.917969 473.800781 541.132812 473.566406 C 541.339844 473.351562 541.546875 473.117188 541.75 472.894531 C 541.957031 472.660156 542.152344 472.433594 542.351562 472.199219 C 542.351562 472.199219 542.359375 472.199219 542.359375 472.191406 C 542.558594 471.957031 542.753906 471.722656 542.941406 471.476562 C 543.136719 471.234375 543.324219 471 543.503906 470.757812 C 544.375 469.605469 545.167969 468.386719 545.863281 467.109375 C 545.964844 466.933594 546.070312 466.734375 546.164062 466.546875 C 546.179688 466.519531 546.191406 466.492188 546.199219 466.472656 C 546.320312 466.257812 546.414062 466.050781 546.519531 465.835938 C 546.863281 465.125 547.175781 464.390625 547.453125 463.652344 C 547.511719 463.511719 547.558594 463.363281 547.605469 463.230469 C 547.6875 463.015625 547.753906 462.800781 547.820312 462.574219 C 547.839844 462.554688 547.839844 462.527344 547.847656 462.5 C 547.914062 462.300781 547.980469 462.097656 548.035156 461.898438 C 548.148438 461.503906 548.261719 461.101562 548.363281 460.699219 C 548.738281 459.144531 549 457.429688 549.074219 455.574219 L 583.773438 469.914062 L 586.761719 471.140625 L 596.136719 475.011719 " fill-opacity="1" fill-rule="nonzero"/><g clip-path="url(#d299e0374c)"><path fill="#8c8cf4" d="M 874.523438 538.570312 C 874.691406 545 842.625 550.734375 828.472656 553.265625 C 792.929688 559.628906 764.535156 560.828125 751.058594 561.277344 C 715.273438 562.476562 710.113281 560.820312 673.644531 561.277344 C 628.8125 561.859375 620.207031 564.570312 588.214844 565.289062 C 588.214844 565.289062 507.914062 567.503906 477.421875 557.941406 C 475.183594 557.238281 471.839844 555.945312 466.742188 555.496094 C 455.382812 554.484375 450.550781 559.027344 444.5 556.085938 C 440.230469 554.015625 436.382812 548.710938 437.382812 545.25 C 438.199219 542.410156 442.207031 541.070312 448.472656 540.453125 C 447.636719 541.390625 447.234375 542.046875 446.945312 543.019531 C 446.269531 545.316406 446.300781 548.960938 448.285156 550.820312 C 451.367188 553.707031 456.085938 549.441406 466.078125 549.039062 C 468.242188 548.953125 477.214844 548.691406 486.101562 553.265625 C 490.523438 555.542969 491.289062 557.144531 495.890625 558.605469 C 501.359375 560.351562 506.105469 559.957031 508.570312 559.722656 C 515.011719 559.121094 515.21875 557.4375 523.695312 555.710938 C 530.324219 554.371094 533.632812 553.707031 537.929688 554.605469 C 543.371094 555.738281 544.777344 558.148438 548.617188 557.277344 C 551.800781 556.554688 552.0625 554.625 556.625 553.488281 C 559.367188 552.804688 562.074219 552.816406 563.078125 552.824219 C 566.792969 552.851562 567.429688 553.566406 569.527344 553.050781 C 569.800781 552.972656 574.175781 551.832031 574.867188 548.8125 C 575.644531 545.402344 571.113281 542.128906 570.195312 541.464844 C 566.699219 538.941406 562.890625 538.679688 560.855469 538.570312 C 554.152344 538.203125 552.390625 541.003906 549.503906 539.46875 C 547.296875 538.289062 547.128906 536 546.507812 533.695312 C 557.121094 532.605469 570.070312 531.3125 586.039062 529.796875 C 582.519531 530.835938 580.28125 531.445312 580.355469 531.746094 C 580.523438 532.476562 594.027344 527.472656 609.726562 531.445312 C 615.765625 532.992188 619.558594 535.203125 622.246094 536.570312 C 628.230469 539.609375 636.914062 542.289062 659.203125 542.015625 C 659.101562 542.429688 658.988281 542.84375 658.875 543.246094 C 658.023438 543.855469 657 544.566406 655.839844 545.363281 C 649.621094 549.628906 647.945312 550.304688 648.058594 550.929688 C 648.246094 552 653.574219 552.515625 674.195312 550.59375 L 674.675781 547.480469 C 676.351562 545.335938 677.925781 543.234375 679.386719 541.183594 C 684.347656 540.863281 689.761719 540.433594 695.664062 539.910156 C 715.160156 538.15625 714.664062 536 732.363281 535.230469 C 740.363281 534.886719 747.058594 535.042969 752.855469 535.445312 C 755.261719 538.523438 757.484375 541.578125 759.542969 544.558594 C 759.617188 545.0625 759.617188 545.597656 759.507812 546.140625 C 758.617188 550.808594 750.945312 552.347656 751.171875 553.488281 C 751.332031 554.304688 758.296875 553.949219 774.191406 552.148438 L 773.835938 545.71875 C 773.777344 544.671875 773.65625 543.621094 773.449219 542.578125 C 773.140625 540.910156 772.8125 539.300781 772.46875 537.753906 C 782.5625 539.1875 790.308594 539.925781 801.78125 535.90625 C 811.289062 532.558594 818.3125 527.734375 831.140625 527.882812 C 840.386719 527.996094 848.476562 530.648438 849.835938 527.882812 C 849.835938 527.863281 849.855469 527.855469 849.855469 527.835938 C 853.113281 528.792969 856.679688 529.917969 860.511719 531.230469 C 873.585938 535.726562 874.496094 537.519531 874.523438 538.570312 " fill-opacity="1" fill-rule="nonzero"/></g><path fill="#d6476a" d="M 704.007812 333.023438 C 703.949219 333.316406 703.753906 334.28125 702.949219 334.75 C 702.722656 334.878906 702.472656 334.953125 702.199219 334.984375 C 701.75 335.03125 701.253906 334.9375 700.777344 334.703125 C 701.027344 334.390625 701.242188 334.046875 701.375 333.632812 C 701.441406 333.425781 701.945312 331.785156 701 330.925781 C 700.324219 330.304688 699.109375 330.296875 698.246094 330.820312 C 698.003906 330.597656 697.703125 330.34375 697.367188 330.109375 C 694.070312 327.792969 689.761719 328.414062 688.621094 328.589844 C 687.550781 328.757812 686.71875 328.992188 686.042969 329.191406 C 685.171875 329.453125 684.554688 329.632812 684.03125 329.507812 C 683.832031 329.472656 683.644531 329.386719 683.46875 329.257812 C 682.625 328.628906 682.402344 327.277344 682.683594 326.292969 C 682.859375 325.675781 683.226562 325.207031 683.664062 324.839844 C 684.347656 324.261719 685.210938 323.921875 685.835938 323.6875 C 685.882812 323.667969 685.941406 323.652344 685.988281 323.640625 C 690.0625 322.179688 694.285156 323.699219 696.75 324.839844 C 697.300781 325.09375 697.761719 325.328125 698.105469 325.507812 C 698.679688 325.796875 701.675781 327.371094 703.257812 330.015625 C 703.3125 330.089844 703.351562 330.164062 703.386719 330.238281 C 704.082031 331.46875 704.136719 332.347656 704.007812 333.023438 " fill-opacity="1" fill-rule="nonzero"/><path fill="#22262d" d="M 704.410156 324.839844 C 704.316406 326.480469 703.949219 328.242188 703.257812 330.015625 C 701.675781 327.371094 698.679688 325.796875 698.105469 325.507812 C 697.761719 325.328125 697.300781 325.09375 696.75 324.839844 C 694.285156 323.699219 690.0625 322.179688 685.988281 323.640625 C 686.269531 322.6875 686.792969 321.34375 687.824219 319.996094 C 690.164062 316.941406 693.394531 316.085938 694.332031 315.882812 C 695.316406 315.664062 698.6875 314.90625 701.167969 316.492188 C 703.386719 317.925781 704.644531 321.0625 704.410156 324.839844 " fill-opacity="1" fill-rule="nonzero"/><path fill="#09101c" d="M 702.199219 334.984375 C 702.050781 335.59375 701.769531 336.109375 701.402344 336.425781 C 701.226562 336.59375 701.019531 336.707031 700.804688 336.761719 C 700.101562 336.960938 699.222656 336.566406 698.847656 336.390625 C 698.6875 336.3125 698.539062 336.238281 698.414062 336.164062 C 699.050781 335.96875 700.074219 335.535156 700.777344 334.703125 C 701.253906 334.9375 701.75 335.03125 702.199219 334.984375 " fill-opacity="1" fill-rule="nonzero"/><path fill="#09101c" d="M 698.246094 330.820312 C 697.996094 330.980469 697.761719 331.195312 697.589844 331.441406 C 697.199219 332.019531 697.207031 332.675781 697.273438 333.097656 L 697.273438 333.109375 C 696.972656 333.144531 696.617188 333.136719 696.253906 333.003906 C 695.289062 332.640625 694.605469 331.476562 694.660156 330.089844 C 694.371094 330.230469 694.015625 330.363281 693.621094 330.519531 C 691.183594 331.449219 688.019531 332.667969 686.007812 332.273438 C 685.527344 332.191406 685.117188 332.003906 684.796875 331.703125 C 684.535156 331.457031 684.050781 330.867188 684.03125 329.507812 C 684.554688 329.632812 685.171875 329.453125 686.042969 329.191406 C 686.71875 328.992188 687.550781 328.757812 688.621094 328.589844 C 689.761719 328.414062 694.070312 327.792969 697.367188 330.109375 C 697.703125 330.34375 698.003906 330.597656 698.246094 330.820312 " fill-opacity="1" fill-rule="nonzero"/><path fill="#ff8a86" d="M 704.230469 341.132812 C 704.203125 343.191406 702.621094 345.191406 700.167969 346.453125 C 699.921875 346.585938 699.660156 346.71875 699.398438 346.820312 C 698.761719 345.902344 698.085938 344.964844 697.367188 344.035156 C 696.671875 343.136719 695.941406 342.226562 695.15625 341.320312 C 694.914062 341.027344 694.667969 340.738281 694.417969 340.457031 C 692.691406 340.503906 688.75 340.296875 687.046875 337.691406 C 686.164062 336.359375 686.054688 334.65625 686.007812 332.273438 C 688.019531 332.667969 691.183594 331.449219 693.621094 330.519531 C 694.015625 330.363281 694.371094 330.230469 694.660156 330.089844 C 694.605469 331.476562 695.289062 332.640625 696.253906 333.003906 C 696.617188 333.136719 696.972656 333.144531 697.273438 333.109375 L 697.273438 333.097656 C 697.207031 332.675781 697.199219 332.019531 697.589844 331.441406 C 697.761719 331.195312 697.996094 330.980469 698.246094 330.820312 C 699.109375 330.296875 700.324219 330.304688 701 330.925781 C 701.945312 331.785156 701.441406 333.425781 701.375 333.632812 C 701.242188 334.046875 701.027344 334.390625 700.777344 334.703125 C 700.074219 335.535156 699.050781 335.96875 698.414062 336.164062 C 698.539062 336.238281 698.6875 336.3125 698.847656 336.390625 C 699.222656 336.566406 700.101562 336.960938 700.804688 336.761719 C 701.019531 336.707031 701.226562 336.59375 701.402344 336.425781 C 701.609375 336.820312 701.84375 337.230469 702.113281 337.644531 C 702.6875 338.527344 703.296875 339.277344 703.875 339.894531 C 703.949219 339.988281 704.042969 340.082031 704.128906 340.164062 C 704.210938 340.53125 704.242188 340.859375 704.230469 341.132812 " fill-opacity="1" fill-rule="nonzero"/><path fill="#22262d" d="M 700.167969 351.84375 C 699.707031 353.257812 698.863281 354.242188 697.890625 354.5625 C 696.300781 355.097656 694.097656 353.960938 693.21875 352.339844 C 692.554688 351.105469 692.722656 349.714844 693.265625 348.460938 C 693.835938 347.109375 694.839844 345.902344 695.664062 345.179688 C 696.253906 344.65625 696.84375 344.289062 697.367188 344.035156 C 698.085938 344.964844 698.761719 345.902344 699.398438 346.820312 C 699.660156 346.71875 699.921875 346.585938 700.167969 346.453125 C 700.730469 348.535156 700.644531 350.410156 700.167969 351.84375 " fill-opacity="1" fill-rule="nonzero"/><path fill="#22262d" d="M 711.125 343.632812 C 710.710938 345.910156 708.53125 348.339844 707.835938 349.109375 C 706.742188 350.335938 704.71875 352.605469 701.945312 352.339844 C 701.273438 352.277344 700.671875 352.078125 700.167969 351.84375 C 700.644531 350.410156 700.730469 348.535156 700.167969 346.453125 C 702.621094 345.191406 704.203125 343.191406 704.230469 341.132812 C 704.242188 340.859375 704.210938 340.53125 704.128906 340.164062 C 704.101562 340.070312 704.082031 339.960938 704.042969 339.855469 C 707.050781 339.042969 709.804688 339.800781 710.789062 341.429688 C 711.199219 342.097656 711.265625 342.867188 711.125 343.632812 " fill-opacity="1" fill-rule="nonzero"/><path fill="#22262d" d="M 646.34375 434.894531 C 646.34375 435.082031 646.324219 435.269531 646.289062 435.449219 C 646.035156 436.648438 645.0625 437.765625 644.199219 438.90625 C 643.242188 440.183594 642.25 440.679688 640.828125 439.507812 C 640.621094 439.339844 640.414062 439.140625 640.199219 438.90625 C 640.179688 438.890625 640.164062 438.859375 640.132812 438.84375 C 637.820312 436.394531 636.492188 436.722656 634.488281 436.648438 C 631.734375 436.527344 630.902344 438.65625 629.738281 437.867188 C 629.65625 437.8125 629.578125 437.746094 629.503906 437.671875 C 628.652344 436.875 628.417969 435.269531 628.699219 434.082031 C 629.035156 432.675781 630.199219 431.371094 631.789062 430.359375 C 634.878906 428.410156 639.554688 427.59375 642.792969 429.480469 C 642.972656 429.582031 645.351562 431.007812 646.109375 433.367188 C 646.269531 433.835938 646.351562 434.351562 646.34375 434.894531 " fill-opacity="1" fill-rule="nonzero"/><path fill="#ffffff" d="M 640.828125 439.507812 C 640.726562 440.136719 640.566406 440.867188 640.285156 441.644531 L 640.273438 441.644531 C 640.023438 442.355469 639.65625 443.097656 639.152344 443.847656 C 636.164062 448.269531 630.882812 448.542969 629.703125 448.570312 C 629.09375 448.582031 628.417969 448.597656 627.753906 448.542969 L 627.746094 448.542969 C 626.59375 448.457031 625.496094 448.148438 624.914062 447.296875 C 624.90625 447.277344 624.898438 447.257812 624.886719 447.242188 C 623.585938 445.195312 625.957031 441.261719 627.753906 439.273438 C 628.351562 438.609375 628.960938 438.082031 629.503906 437.671875 C 629.578125 437.746094 629.65625 437.8125 629.738281 437.867188 C 630.902344 438.65625 631.734375 436.527344 634.488281 436.648438 C 636.492188 436.722656 637.820312 436.394531 640.132812 438.84375 C 640.164062 438.859375 640.179688 438.890625 640.199219 438.90625 C 640.414062 439.140625 640.621094 439.339844 640.828125 439.507812 " fill-opacity="1" fill-rule="nonzero"/><path fill="#09101c" d="M 627.746094 448.542969 L 589.710938 469.519531 L 586.722656 468.292969 L 624.886719 447.242188 C 624.898438 447.257812 624.90625 447.277344 624.914062 447.296875 C 625.496094 448.148438 626.59375 448.457031 627.746094 448.542969 " fill-opacity="1" fill-rule="nonzero"/><path fill="#09101c" d="M 781.769531 363.644531 L 769.734375 370.28125 L 756.988281 377.308594 C 755.582031 377.152344 754.035156 377.027344 752.386719 376.964844 L 768.488281 368.078125 L 780.558594 361.433594 C 781.167969 361.09375 781.9375 361.320312 782.273438 361.929688 C 782.601562 362.546875 782.386719 363.308594 781.769531 363.644531 " fill-opacity="1" fill-rule="nonzero"/><path fill="#ab2641" d="M 768.488281 368.078125 L 752.386719 376.964844 C 751.332031 376.917969 750.214844 376.898438 749.0625 376.917969 C 742.019531 377.019531 733.5 378.386719 725.136719 382.953125 C 723.730469 383.710938 722.417969 384.527344 721.191406 385.371094 C 719.507812 385.585938 717.921875 386.34375 716.800781 387.460938 C 716.398438 387.84375 715.855469 388.492188 715.421875 389.503906 C 714.589844 389.859375 713.738281 390.320312 712.941406 390.929688 C 712.171875 391.519531 711.460938 392.242188 710.871094 393.121094 C 710.074219 394.292969 709.785156 395.324219 709.234375 397.265625 C 708.90625 398.445312 708.597656 399.851562 708.378906 401.21875 L 694.144531 409.066406 C 693.976562 408.136719 693.722656 407.171875 693.367188 406.179688 C 692.984375 405.117188 692.414062 404.089844 691.289062 402.015625 C 686.117188 392.523438 681.585938 389.832031 678.234375 383.617188 C 677.183594 381.660156 676.050781 379.015625 675.359375 375.546875 C 674.851562 378.339844 674.335938 381.40625 673.859375 384.734375 C 671.199219 402.980469 672.21875 408.71875 668.519531 415.898438 C 666.078125 420.640625 661.273438 426.609375 650.707031 431.464844 C 649.285156 432.121094 647.757812 432.75 646.109375 433.367188 C 645.351562 431.007812 642.972656 429.582031 642.792969 429.480469 C 639.554688 427.59375 634.878906 428.410156 631.789062 430.359375 C 632.71875 427.734375 634.113281 424.390625 636.136719 421.015625 C 637.980469 417.949219 640.351562 414.847656 643.382812 412.1875 C 643.992188 411.652344 644.640625 411.128906 645.3125 410.628906 C 645.492188 410.5 645.660156 410.378906 645.828125 410.253906 C 646.035156 410.113281 646.230469 409.984375 646.429688 409.851562 C 647.636719 404.125 649.492188 395.679688 651.617188 387.011719 C 653.761719 378.285156 656.175781 369.332031 658.507812 362.6875 C 659.164062 360.8125 660.214844 358.003906 662.734375 355.339844 C 668.859375 348.882812 678.796875 348.59375 684.984375 348.21875 C 688.019531 348.03125 690.800781 348.171875 693.265625 348.460938 C 692.722656 349.714844 692.554688 351.105469 693.21875 352.339844 C 694.097656 353.960938 696.300781 355.097656 697.890625 354.5625 C 698.863281 354.242188 699.707031 353.257812 700.167969 351.84375 C 700.671875 352.078125 701.273438 352.277344 701.945312 352.339844 C 704.71875 352.605469 706.742188 350.335938 707.835938 349.109375 C 708.53125 348.339844 710.710938 345.910156 711.125 343.632812 C 713.476562 342.566406 716.277344 341.441406 719.46875 340.429688 C 727 338.027344 732.964844 336.136719 739.042969 337.082031 C 748.4375 338.554688 754.054688 346.746094 765.292969 363.136719 C 766.550781 364.964844 767.605469 366.597656 768.488281 368.078125 " fill-opacity="1" fill-rule="nonzero"/><path fill="#7a1c33" d="M 749.503906 378.59375 C 749.363281 378.59375 749.242188 378.5 749.195312 378.371094 C 746.234375 369.070312 742.949219 359.753906 739.417969 350.671875 C 738.722656 348.875 738.011719 347.09375 737.300781 345.332031 C 737.234375 345.171875 737.320312 344.984375 737.480469 344.917969 C 737.636719 344.851562 737.824219 344.925781 737.890625 345.097656 C 738.601562 346.859375 739.304688 348.640625 740.007812 350.4375 C 743.539062 359.539062 746.835938 368.867188 749.804688 378.183594 C 749.851562 378.339844 749.757812 378.519531 749.597656 378.574219 C 749.558594 378.585938 749.53125 378.59375 749.503906 378.59375 " fill-opacity="1" fill-rule="nonzero"/><path fill="#7a1c33" d="M 664.148438 410.800781 C 664.074219 410.800781 663.996094 410.769531 663.941406 410.722656 C 662.078125 409.101562 659.035156 407.164062 655.101562 407.085938 C 652.542969 407.039062 649.632812 408.089844 646.597656 410.113281 C 646.457031 410.21875 646.257812 410.171875 646.167969 410.03125 C 646.0625 409.878906 646.101562 409.691406 646.25 409.589844 C 649.386719 407.492188 652.46875 406.402344 655.109375 406.449219 C 659.238281 406.535156 662.414062 408.558594 664.355469 410.246094 C 664.484375 410.359375 664.503906 410.566406 664.382812 410.695312 C 664.324219 410.761719 664.230469 410.800781 664.148438 410.800781 " fill-opacity="1" fill-rule="nonzero"/><path fill="#22262d" d="M 728.535156 396.195312 C 728.214844 396.65625 727.824219 397.058594 727.375 397.40625 C 726.0625 398.445312 724.28125 398.96875 722.410156 398.839844 C 722.550781 398.546875 722.679688 398.257812 722.804688 397.976562 C 723.140625 397.21875 723.382812 396.457031 723.550781 395.746094 C 723.804688 394.632812 723.878906 393.589844 723.878906 392.679688 C 723.878906 392.464844 723.871094 392.269531 723.863281 392.082031 L 723.804688 391.707031 C 723.664062 391.246094 723.148438 389.804688 721.6875 388.960938 C 721.164062 388.652344 720.640625 388.511719 720.246094 388.4375 L 720.058594 388.371094 C 719.207031 388.445312 717.363281 388.679688 715.421875 389.503906 C 715.855469 388.492188 716.398438 387.84375 716.800781 387.460938 C 717.921875 386.34375 719.507812 385.585938 721.191406 385.371094 C 722.839844 385.136719 724.574219 385.425781 726.082031 386.402344 C 727.363281 387.226562 728.367188 388.472656 728.957031 389.878906 C 729.3125 390.683594 729.519531 391.558594 729.566406 392.429688 C 729.628906 393.757812 729.320312 395.082031 728.535156 396.195312 " fill-opacity="1" fill-rule="nonzero"/><path fill="#ab2641" d="M 761.292969 404.097656 C 760.855469 407.96875 757.941406 410.742188 753.597656 413.480469 C 751.433594 414.847656 748.914062 416.207031 746.160156 417.679688 C 742.003906 419.917969 738.894531 421.585938 734.371094 421.691406 C 732.027344 421.738281 725.808594 421.878906 721.472656 417.238281 C 720.441406 416.132812 719.695312 414.960938 719.167969 413.84375 C 718.964844 416.796875 718.0625 421.210938 714.722656 424.875 C 709.785156 430.292969 701.609375 431.851562 696.476562 430.527344 C 694.679688 430.070312 693.253906 429.261719 692.476562 428.148438 C 690.035156 424.660156 694.621094 419.308594 694.425781 411.792969 L 708.109375 404.246094 C 708.109375 405.625 708.34375 406.664062 708.941406 406.917969 C 709.851562 407.304688 711.292969 405.757812 711.460938 405.585938 C 711.601562 405.429688 711.734375 405.269531 711.84375 405.109375 C 712.296875 405.164062 712.828125 405.164062 713.410156 405.042969 C 715.265625 404.667969 716.433594 403.292969 717.015625 402.382812 C 717.738281 402.402344 718.824219 402.308594 719.910156 401.707031 C 721.203125 400.996094 721.894531 399.917969 722.410156 398.839844 C 724.28125 398.96875 726.0625 398.445312 727.375 397.40625 C 731.25 396.628906 736.066406 395.878906 741.597656 395.53125 C 749.035156 395.0625 754.066406 395.539062 758.082031 395.203125 C 760.03125 397.613281 761.667969 400.722656 761.292969 404.097656 " fill-opacity="1" fill-rule="nonzero"/><path fill="#09101c" d="M 708.378906 401.21875 C 708.222656 402.289062 708.109375 403.347656 708.109375 404.246094 L 694.425781 411.792969 L 651.683594 435.355469 L 640.285156 441.644531 C 640.566406 440.867188 640.726562 440.136719 640.828125 439.507812 C 642.25 440.679688 643.242188 440.183594 644.199219 438.90625 C 645.0625 437.765625 646.035156 436.648438 646.289062 435.449219 L 651.09375 432.804688 L 694.144531 409.066406 L 708.378906 401.21875 " fill-opacity="1" fill-rule="nonzero"/><path fill="#7a1c33" d="M 714.421875 392.992188 C 714.335938 392.992188 714.253906 392.953125 714.1875 392.878906 C 707.164062 384.921875 702.621094 375.578125 701.066406 365.855469 C 700.542969 362.625 700.34375 359.304688 700.464844 355.996094 C 700.476562 355.828125 700.617188 355.6875 700.792969 355.695312 C 700.964844 355.695312 701.101562 355.847656 701.09375 356.023438 C 700.972656 359.285156 701.167969 362.566406 701.683594 365.753906 C 703.230469 375.359375 707.714844 384.59375 714.664062 392.464844 C 714.777344 392.597656 714.769531 392.792969 714.636719 392.90625 C 714.570312 392.960938 714.496094 392.992188 714.421875 392.992188 " fill-opacity="1" fill-rule="nonzero"/><path fill="#09101c" d="M 766.230469 516.75 C 765.828125 517.207031 765.367188 517.703125 764.871094 518.203125 C 764.730469 518.34375 764.589844 518.484375 764.441406 518.625 C 764.03125 519.035156 763.578125 519.449219 763.113281 519.859375 C 762.765625 520.160156 762.410156 520.460938 762.035156 520.761719 C 758.597656 523.523438 754.410156 525.765625 751.160156 526.878906 C 750.113281 525.148438 749.089844 523.496094 748.089844 521.933594 C 747.660156 521.246094 747.226562 520.582031 746.796875 519.925781 C 739.839844 509.203125 734.332031 502.550781 730.144531 498.199219 C 729.039062 497.054688 726.765625 494.761719 724.507812 491.078125 C 721.746094 486.558594 720.300781 482.042969 719.523438 477.363281 C 718.765625 472.734375 718.664062 467.964844 718.578125 462.875 C 718.523438 459.546875 718.597656 455.589844 718.964844 451.109375 C 718.925781 451.175781 718.90625 451.234375 718.871094 451.296875 C 712.933594 464.203125 708.210938 469.171875 704.089844 479.4375 C 703.773438 480.222656 703.464844 481.027344 703.15625 481.871094 C 700.496094 489.191406 699.988281 493.90625 698.996094 498.800781 C 697.730469 505.0625 695.4375 512.71875 691.121094 521.621094 C 690.800781 522.269531 690.472656 522.914062 690.136719 523.582031 C 689.648438 523.523438 689.164062 523.46875 688.65625 523.402344 C 688.214844 523.347656 687.777344 523.28125 687.328125 523.226562 C 686.410156 523.09375 685.472656 522.953125 684.515625 522.792969 C 684.132812 522.726562 683.75 522.664062 683.355469 522.585938 C 682.570312 522.457031 681.765625 522.296875 680.957031 522.136719 C 680.949219 522.148438 680.949219 522.148438 680.949219 522.136719 C 679.769531 521.902344 678.5625 521.652344 677.34375 521.359375 C 674.375 520.648438 671.582031 519.859375 669 519.015625 C 673.183594 505.640625 675.460938 496.691406 676.753906 490.484375 C 677.109375 488.789062 678.035156 484.195312 679.714844 478.011719 C 681.746094 470.585938 683.722656 465.066406 685.929688 459.21875 C 686.792969 456.960938 687.671875 454.664062 688.621094 452.1875 C 690.605469 446.941406 693.332031 439.609375 696.476562 430.527344 C 701.609375 431.851562 709.785156 430.292969 714.722656 424.875 C 718.0625 421.210938 718.964844 416.796875 719.167969 413.84375 C 719.695312 414.960938 720.441406 416.132812 721.472656 417.238281 C 725.808594 421.878906 732.027344 421.738281 734.371094 421.691406 C 738.894531 421.585938 742.003906 419.917969 746.160156 417.679688 C 748.914062 416.207031 751.433594 414.847656 753.597656 413.480469 C 753.503906 419.148438 753.082031 423.753906 752.6875 426.957031 C 751.5625 436.332031 749.710938 443.105469 748.089844 450.746094 C 746.882812 456.417969 745.8125 462.566406 745.269531 470.597656 C 745.242188 471.074219 745.214844 471.535156 745.1875 471.976562 C 745.1875 471.976562 745.1875 471.976562 745.1875 471.984375 C 745.484375 473.195312 745.878906 474.476562 746.386719 475.789062 C 747.882812 479.746094 749.730469 482.398438 750.382812 483.363281 C 757.097656 493.203125 763.703125 509.980469 766.230469 516.75 " fill-opacity="1" fill-rule="nonzero"/><path fill="#b23e04" d="M 549.074219 455.574219 C 549 457.429688 548.738281 459.144531 548.363281 460.699219 C 548.261719 461.101562 548.148438 461.503906 548.035156 461.898438 C 547.980469 462.097656 547.914062 462.300781 547.847656 462.5 C 547.839844 462.527344 547.839844 462.554688 547.820312 462.574219 C 547.753906 462.800781 547.6875 463.015625 547.605469 463.230469 C 547.558594 463.363281 547.511719 463.511719 547.453125 463.652344 C 547.175781 464.390625 546.863281 465.125 546.519531 465.835938 C 546.414062 466.050781 546.3125 466.257812 546.199219 466.472656 C 546.191406 466.492188 546.179688 466.519531 546.164062 466.546875 C 546.070312 466.734375 545.964844 466.933594 545.863281 467.109375 C 545.167969 468.386719 544.375 469.605469 543.503906 470.757812 C 543.324219 471 543.136719 471.234375 542.941406 471.476562 C 542.753906 471.722656 542.558594 471.957031 542.359375 472.191406 C 542.359375 472.199219 542.351562 472.199219 542.351562 472.199219 C 542.152344 472.433594 541.957031 472.660156 541.75 472.894531 C 541.546875 473.117188 541.339844 473.351562 541.132812 473.566406 C 540.917969 473.800781 540.703125 474.019531 540.476562 474.242188 C 540.019531 474.722656 539.53125 475.179688 539.035156 475.640625 C 538.847656 475.808594 538.652344 475.976562 538.453125 476.15625 C 538.238281 476.351562 538.003906 476.550781 537.78125 476.746094 C 537.527344 476.941406 537.285156 477.148438 537.039062 477.34375 C 536.796875 477.542969 536.554688 477.738281 536.308594 477.925781 C 535.476562 478.574219 534.632812 479.191406 533.773438 479.78125 C 531.957031 479.210938 529.671875 479.125 527.804688 479.90625 C 527.617188 479.988281 527.429688 480.074219 527.253906 480.167969 C 525.726562 480.980469 525.070312 482.089844 524.144531 481.796875 C 523.140625 481.488281 523.179688 480 522.824219 478.535156 C 529.164062 473.8125 535.5625 467.71875 540.394531 460.519531 C 541.949219 458.207031 543.257812 455.902344 544.375 453.640625 L 549.074219 455.574219 " fill-opacity="1" fill-rule="nonzero"/><path fill="#b23e04" d="M 600.117188 490.953125 C 596.398438 501.660156 586.546875 506.953125 575.871094 512.679688 C 570.804688 515.398438 563.132812 518.914062 553.066406 521.378906 L 553.796875 519.558594 C 558.796875 517.742188 583.886719 503.328125 591.789062 488.050781 C 594.234375 483.324219 595.5 478.789062 596.136719 475.011719 L 600.472656 473.925781 C 601.457031 477.738281 602.46875 484.140625 600.117188 490.953125 " fill-opacity="1" fill-rule="nonzero"/><path fill="#e5ac38" d="M 553.796875 519.558594 L 553.066406 521.378906 L 549.367188 519 C 549.75 518.773438 550.058594 518.472656 550.28125 517.976562 C 550.367188 517.796875 550.421875 517.621094 550.460938 517.433594 L 553.796875 519.558594 " fill-opacity="1" fill-rule="nonzero"/><path fill="#e5ac38" d="M 600.472656 473.925781 L 596.136719 475.011719 L 586.761719 471.140625 L 583.773438 469.914062 L 549.074219 455.574219 L 544.375 453.640625 L 547.453125 452.1875 L 586.722656 468.292969 L 589.710938 469.519531 L 600.472656 473.925781 " fill-opacity="1" fill-rule="nonzero"/><path fill="#e5ac38" d="M 554.992188 466.886719 C 554.355469 469.464844 553.300781 472.566406 551.425781 475.789062 C 551.386719 475.855469 551.351562 475.929688 551.3125 475.988281 C 549.496094 476.492188 547.800781 477.53125 547.050781 479.015625 C 546.546875 480.027344 546.621094 480.972656 546.875 481.917969 C 545.460938 483.429688 544 484.703125 542.566406 485.808594 C 540.167969 487.636719 537.863281 488.941406 536.027344 489.828125 C 535.886719 489.464844 535.804688 489.082031 535.738281 488.734375 L 539.355469 484.628906 L 554.992188 466.886719 " fill-opacity="1" fill-rule="nonzero"/><path fill="#e5ac38" d="M 565.519531 472.96875 C 564.957031 475.628906 563.929688 478.910156 561.960938 482.324219 C 561.90625 482.417969 561.847656 482.519531 561.785156 482.613281 C 560.5 482.839844 559.453125 483.371094 558.515625 482.699219 C 558.113281 482.398438 557.898438 481.996094 557.792969 481.542969 L 565.519531 472.96875 " fill-opacity="1" fill-rule="nonzero"/><path fill="#e5ac38" d="M 577.238281 478.609375 C 576.320312 481.441406 574.886719 484.796875 572.636719 488.253906 C 571.113281 490.609375 569.433594 492.660156 567.730469 494.433594 C 567.226562 493.859375 566.617188 493.410156 566.054688 493.074219 C 567.046875 491.976562 567.65625 490.597656 567.777344 489.144531 L 577.238281 478.609375 " fill-opacity="1" fill-rule="nonzero"/><path fill="#ffffff" d="M 530.746094 481.714844 C 530.839844 481.648438 530.914062 481.601562 531.007812 481.542969 L 531.019531 481.554688 C 530.925781 481.601562 530.839844 481.648438 530.746094 481.714844 Z M 568.75 496.382812 C 568.574219 495.613281 568.199219 494.964844 567.730469 494.433594 C 567.226562 493.859375 566.617188 493.410156 566.054688 493.074219 C 567.046875 491.976562 567.65625 490.597656 567.777344 489.144531 C 567.804688 488.707031 567.804688 488.253906 567.75 487.804688 C 567.476562 485.707031 566.140625 483.570312 564.191406 482.800781 C 563.300781 482.453125 562.503906 482.480469 561.785156 482.613281 C 560.5 482.839844 559.453125 483.371094 558.515625 482.699219 C 558.113281 482.398438 557.898438 481.996094 557.792969 481.542969 C 557.449219 480.054688 558.195312 477.945312 556.960938 476.679688 C 555.855469 475.554688 553.496094 475.386719 551.3125 475.988281 C 549.496094 476.492188 547.800781 477.53125 547.050781 479.015625 C 546.546875 480.027344 546.621094 480.972656 546.875 481.917969 C 547.3125 483.617188 548.324219 485.320312 547.5 487.476562 C 547.484375 487.515625 547.472656 487.550781 547.453125 487.597656 C 545.929688 491.320312 539.992188 493.691406 537.378906 491.828125 C 536.703125 491.339844 536.28125 490.597656 536.027344 489.828125 C 535.886719 489.464844 535.804688 489.082031 535.738281 488.734375 C 535.578125 487.796875 535.597656 487.019531 535.597656 486.914062 C 535.65625 485.359375 536.292969 484.449219 536.65625 483.625 C 536.871094 483.136719 537.003906 482.679688 536.824219 482.136719 C 536.496094 481.121094 535.296875 480.269531 533.773438 479.78125 C 531.957031 479.210938 529.671875 479.125 527.804688 479.90625 C 527.617188 479.988281 527.429688 480.074219 527.253906 480.167969 C 525.726562 480.980469 525.070312 482.089844 524.144531 481.796875 C 523.140625 481.488281 523.179688 480 522.824219 478.535156 C 522.65625 477.871094 522.402344 477.214844 521.914062 476.679688 C 519.03125 473.492188 508.148438 475.179688 504.234375 482.136719 C 503.035156 484.261719 502.726562 486.457031 502.734375 488.21875 C 503.15625 487.964844 503.53125 487.804688 503.792969 487.703125 L 502.734375 488.21875 L 502.894531 490.375 C 502.808594 489.792969 502.734375 489.050781 502.734375 488.21875 C 501.929688 488.667969 500.925781 489.417969 500.113281 490.597656 C 499.898438 490.90625 497.828125 494.027344 499.109375 497.609375 C 500.28125 500.84375 503.316406 501.996094 504.347656 502.390625 C 506.78125 503.328125 509.039062 503.074219 510.460938 502.707031 C 510.425781 502.304688 510.433594 501.957031 510.460938 501.722656 L 510.460938 502.707031 L 511.6875 502.324219 C 511.425781 502.425781 511.003906 502.578125 510.460938 502.707031 C 510.5 503.109375 510.59375 503.570312 510.789062 504.066406 C 510.828125 504.140625 511.425781 505.558594 512.792969 506.402344 C 514.179688 507.253906 515.976562 507.308594 517.664062 506.664062 L 518.695312 506.175781 C 518.355469 506.371094 518.019531 506.542969 517.664062 506.664062 C 518.617188 507.761719 519.734375 508.585938 521.027344 508.632812 C 522.308594 508.660156 522.730469 507.890625 524.257812 507.855469 C 526.261719 507.796875 528.527344 509.074219 528.59375 510.300781 C 528.640625 511.378906 526.945312 511.554688 525.585938 513.75 C 525.4375 514.011719 523.9375 516.484375 524.695312 517.863281 C 525.332031 519.015625 527.542969 519.402344 530.390625 518.773438 C 530.074219 517.3125 530.128906 516.148438 530.148438 515.859375 L 530.390625 518.773438 L 532.714844 518.089844 C 531.898438 518.390625 531.121094 518.613281 530.390625 518.773438 C 530.738281 520.339844 531.523438 522.25 533.265625 523.769531 C 536.121094 526.253906 540.691406 526.898438 543.054688 525.109375 C 544.53125 523.976562 543.933594 522.804688 545.945312 520.984375 C 547.371094 519.699219 548.542969 519.484375 549.367188 519 C 549.75 518.773438 550.058594 518.472656 550.28125 517.976562 C 550.367188 517.796875 550.421875 517.621094 550.460938 517.433594 C 550.488281 517.273438 550.507812 517.125 550.507812 516.972656 C 550.554688 515.644531 549.703125 514.460938 550.5 513.410156 C 550.910156 512.886719 551.292969 512.960938 553.140625 512.316406 C 553.148438 512.304688 553.160156 512.304688 553.175781 512.304688 C 555.648438 511.433594 556.875 511.003906 557.511719 510.074219 C 557.71875 509.773438 558.382812 508.652344 557.605469 506.269531 C 560.089844 505.980469 563.667969 505.050781 566.296875 502.175781 C 567.402344 500.964844 569.3125 498.875 568.75 496.382812 " fill-opacity="1" fill-rule="nonzero"/><path fill="#ffffff" d="M 574.867188 548.8125 C 574.175781 551.832031 569.800781 552.972656 569.527344 553.050781 C 567.429688 553.566406 566.792969 552.851562 563.078125 552.824219 C 562.074219 552.816406 559.367188 552.804688 556.625 553.488281 C 552.0625 554.625 551.800781 556.554688 548.617188 557.277344 C 544.777344 558.148438 543.371094 555.738281 537.929688 554.605469 C 533.632812 553.707031 530.324219 554.371094 523.695312 555.710938 C 515.21875 557.4375 515.011719 559.121094 508.570312 559.722656 C 506.105469 559.957031 501.359375 560.351562 495.890625 558.605469 C 491.289062 557.144531 490.523438 555.542969 486.101562 553.265625 C 477.214844 548.691406 468.242188 548.953125 466.078125 549.039062 C 456.085938 549.441406 451.367188 553.707031 448.285156 550.820312 C 446.300781 548.960938 446.269531 545.316406 446.945312 543.019531 C 447.234375 542.046875 447.636719 541.390625 448.472656 540.453125 C 449.164062 539.683594 450.140625 538.726562 451.617188 537.238281 C 458.652344 530.132812 458.503906 529.46875 460.300781 529 C 464.503906 527.910156 467.445312 531.03125 469.636719 529.222656 C 470.902344 528.183594 470.488281 526.675781 470.976562 524.097656 C 471.753906 519.980469 474.265625 516.109375 476.894531 513.785156 C 478.75 512.15625 480.660156 511.292969 482.09375 511.640625 C 484.183594 512.136719 484.574219 515.0625 486.542969 514.96875 C 488.003906 514.910156 488.226562 513.289062 490.109375 512.082031 C 493.03125 510.1875 497.472656 510.929688 500.347656 512.746094 C 503.257812 514.601562 504.46875 517.507812 504.785156 518.3125 C 505.910156 521.136719 505.582031 523.523438 506.351562 523.65625 C 507.109375 523.789062 507.34375 521.445312 509.460938 519.878906 C 511.304688 518.511719 514 518.15625 516.128906 518.988281 C 518.09375 519.738281 519.085938 521.292969 520.144531 522.992188 C 523.246094 528.003906 522.195312 531.546875 524.144531 532.335938 C 525.878906 533.039062 527.121094 530.40625 531.261719 528.785156 C 534.558594 527.488281 540.167969 526.636719 543.71875 529.222656 C 545.433594 530.46875 546.078125 532.082031 546.507812 533.695312 C 547.128906 536 547.296875 538.289062 549.503906 539.46875 C 552.390625 541.003906 554.152344 538.203125 560.855469 538.570312 C 562.890625 538.679688 566.699219 538.941406 570.195312 541.464844 C 571.113281 542.128906 575.644531 545.402344 574.867188 548.8125 " fill-opacity="1" fill-rule="nonzero"/><path fill="#bcbace" d="M 646.289062 435.449219 C 646.324219 435.269531 646.34375 435.082031 646.34375 434.894531 C 646.351562 434.351562 646.269531 433.835938 646.109375 433.367188 C 647.757812 432.75 649.285156 432.121094 650.707031 431.464844 C 650.839844 431.90625 650.96875 432.347656 651.09375 432.804688 L 646.289062 435.449219 " fill-opacity="1" fill-rule="nonzero"/><path fill="#09101c" d="M 751.160156 526.878906 C 748.746094 527.714844 746.835938 527.921875 746.121094 527.265625 C 746.085938 527.226562 746.046875 527.179688 746.011719 527.144531 C 745.578125 526.5625 745.691406 525.230469 748.089844 521.933594 C 749.089844 523.496094 750.113281 525.148438 751.160156 526.878906 " fill-opacity="1" fill-rule="nonzero"/><path fill="#ab2641" d="M 774.191406 552.148438 C 758.296875 553.949219 751.332031 554.304688 751.171875 553.488281 C 750.945312 552.347656 758.617188 550.808594 759.507812 546.140625 C 759.617188 545.597656 759.617188 545.0625 759.542969 544.558594 C 757.484375 541.578125 755.261719 538.523438 752.855469 535.445312 C 752.050781 534.417969 751.238281 533.386719 750.382812 532.335938 C 748.960938 530.582031 747.535156 528.894531 746.121094 527.265625 C 746.835938 527.921875 748.746094 527.714844 751.160156 526.878906 C 754.410156 525.765625 758.597656 523.523438 762.035156 520.761719 C 762.410156 520.460938 762.765625 520.160156 763.113281 519.859375 C 763.578125 519.449219 764.03125 519.035156 764.441406 518.625 C 764.589844 518.484375 764.730469 518.34375 764.871094 518.203125 C 765.367188 517.703125 765.828125 517.207031 766.230469 516.75 C 766.828125 518.324219 767.195312 519.355469 767.296875 519.644531 C 767.328125 519.71875 767.355469 519.804688 767.382812 519.886719 L 767.390625 519.886719 C 768.964844 524.367188 770.839844 530.375 772.46875 537.753906 C 772.8125 539.300781 773.140625 540.910156 773.449219 542.578125 C 773.65625 543.621094 773.777344 544.671875 773.835938 545.71875 L 774.191406 552.148438 " fill-opacity="1" fill-rule="nonzero"/><path fill="#ab2641" d="M 690.136719 523.582031 C 687.375 529.015625 683.863281 534.894531 679.386719 541.183594 C 677.925781 543.234375 676.351562 545.335938 674.675781 547.480469 L 674.195312 550.59375 C 653.574219 552.515625 648.246094 552 648.058594 550.929688 C 647.945312 550.304688 649.621094 549.628906 655.839844 545.363281 C 657 544.566406 658.023438 543.855469 658.875 543.246094 C 658.988281 542.84375 659.101562 542.429688 659.203125 542.015625 C 660.871094 535.992188 662.5 529.859375 664.074219 523.65625 C 664.121094 523.488281 664.15625 523.300781 664.203125 523.121094 C 664.652344 521.359375 665.09375 519.597656 665.523438 517.835938 C 666.648438 518.238281 667.800781 518.632812 669 519.015625 C 671.582031 519.859375 674.375 520.648438 677.34375 521.359375 C 678.5625 521.652344 679.769531 521.902344 680.949219 522.136719 C 680.949219 522.148438 680.949219 522.148438 680.957031 522.136719 C 681.765625 522.296875 682.570312 522.457031 683.355469 522.585938 C 683.75 522.664062 684.132812 522.726562 684.515625 522.792969 C 685.472656 522.953125 686.410156 523.09375 687.328125 523.226562 C 687.777344 523.28125 688.214844 523.347656 688.65625 523.402344 C 689.164062 523.46875 689.648438 523.523438 690.136719 523.582031 " fill-opacity="1" fill-rule="nonzero"/><path fill="#d6476a" d="M 772.308594 380.945312 C 772.195312 381.761719 771.242188 388.417969 765.734375 392.523438 C 763.363281 394.292969 760.984375 394.960938 758.082031 395.203125 C 754.066406 395.539062 749.035156 395.0625 741.597656 395.53125 C 736.066406 395.878906 731.25 396.628906 727.375 397.40625 C 727.824219 397.058594 728.214844 396.65625 728.535156 396.195312 C 729.320312 395.082031 729.628906 393.757812 729.566406 392.429688 C 729.519531 391.558594 729.3125 390.683594 728.957031 389.878906 C 728.367188 388.472656 727.363281 387.226562 726.082031 386.402344 C 724.574219 385.425781 722.839844 385.136719 721.191406 385.371094 C 722.417969 384.527344 723.730469 383.710938 725.136719 382.953125 C 733.5 378.386719 742.019531 377.019531 749.0625 376.917969 C 750.214844 376.898438 751.332031 376.917969 752.386719 376.964844 C 754.035156 377.027344 755.582031 377.152344 756.988281 377.308594 L 769.734375 370.28125 C 772.167969 374.84375 772.691406 377.84375 772.308594 380.945312 " fill-opacity="1" fill-rule="nonzero"/><path fill="#ffffff" d="M 723.878906 392.679688 C 723.878906 393.589844 723.804688 394.632812 723.550781 395.746094 C 723.382812 396.457031 723.140625 397.21875 722.804688 397.976562 C 722.679688 398.257812 722.550781 398.546875 722.410156 398.839844 C 721.894531 399.917969 721.203125 400.996094 719.910156 401.707031 C 718.824219 402.308594 717.738281 402.402344 717.015625 402.382812 C 716.433594 403.292969 715.265625 404.667969 713.410156 405.042969 C 712.828125 405.164062 712.296875 405.164062 711.84375 405.109375 C 711.734375 405.269531 711.601562 405.429688 711.460938 405.585938 C 711.292969 405.757812 709.851562 407.304688 708.941406 406.917969 C 708.34375 406.664062 708.109375 405.625 708.109375 404.246094 C 708.109375 403.347656 708.222656 402.289062 708.378906 401.21875 C 708.597656 399.851562 708.90625 398.445312 709.234375 397.265625 C 709.785156 395.324219 710.074219 394.292969 710.871094 393.121094 C 711.460938 392.242188 712.171875 391.519531 712.941406 390.929688 C 713.738281 390.320312 714.589844 389.859375 715.421875 389.503906 C 717.363281 388.679688 719.207031 388.445312 720.058594 388.371094 L 720.246094 388.4375 C 720.640625 388.511719 721.164062 388.652344 721.6875 388.960938 C 723.148438 389.804688 723.664062 391.246094 723.804688 391.707031 L 723.863281 392.082031 C 723.871094 392.269531 723.878906 392.464844 723.878906 392.679688 " fill-opacity="1" fill-rule="nonzero"/><path fill="#ffffff" d="M 507.980469 506.964844 C 507.164062 505.210938 504.503906 505.003906 502.78125 505.625 C 501.003906 506.269531 499.289062 508.164062 499.671875 509.773438 C 500.132812 511.707031 503.476562 512.878906 505.75 511.707031 C 507.398438 510.863281 508.757812 508.640625 507.980469 506.964844 " fill-opacity="1" fill-rule="nonzero"/><path fill="#ffffff" d="M 519.394531 516.15625 C 518.664062 515.191406 516.316406 515.371094 515.023438 516.609375 C 513.597656 517.957031 513.496094 520.535156 514.433594 521.210938 C 515.574219 522.027344 518.75 520.347656 519.472656 518.015625 C 519.574219 517.695312 519.855469 516.765625 519.394531 516.15625 " fill-opacity="1" fill-rule="nonzero"/><path fill="#ffffff" d="M 525.472656 510.019531 C 524.554688 508.996094 522.597656 508.921875 521.859375 509.90625 C 521.53125 510.347656 521.410156 511.058594 521.699219 511.574219 C 522.410156 512.878906 525.503906 512.652344 525.980469 511.574219 C 526.269531 510.917969 525.519531 510.066406 525.472656 510.019531 " fill-opacity="1" fill-rule="nonzero"/><path fill="#ffffff" d="M 526.074219 520.46875 C 525.484375 520.132812 524.265625 520.722656 524.144531 521.652344 C 524.050781 522.355469 524.59375 523.1875 525.257812 523.207031 C 525.933594 523.234375 526.402344 522.382812 526.476562 521.761719 C 526.53125 521.386719 526.496094 520.703125 526.074219 520.46875 " fill-opacity="1" fill-rule="nonzero"/><path fill="#ffffff" d="M 529.519531 520.683594 C 529.015625 520.507812 528.105469 521.285156 528.21875 521.949219 C 528.265625 522.230469 528.488281 522.464844 528.742188 522.578125 C 529.109375 522.746094 529.539062 522.632812 529.78125 522.402344 C 530.269531 521.902344 529.988281 520.855469 529.519531 520.683594 " fill-opacity="1" fill-rule="nonzero"/><path fill="#ffffff" d="M 529.03125 523.582031 C 528.527344 523.335938 527.796875 523.757812 527.777344 524.171875 C 527.757812 524.445312 528.03125 524.679688 528.21875 524.773438 C 528.660156 524.996094 529.332031 524.882812 529.484375 524.472656 C 529.59375 524.152344 529.359375 523.742188 529.03125 523.582031 " fill-opacity="1" fill-rule="nonzero"/><path fill="#ffffff" d="M 530.449219 524.996094 C 528.984375 524.566406 527.160156 526.363281 527.214844 527.734375 C 527.246094 528.238281 527.523438 528.867188 527.890625 528.925781 C 528.117188 528.960938 528.265625 528.746094 528.78125 528.371094 C 529.285156 527.996094 529.753906 527.761719 529.96875 527.667969 C 531.027344 527.191406 531.65625 527.601562 531.890625 527.253906 C 532.21875 526.785156 531.523438 525.304688 530.449219 524.996094 " fill-opacity="1" fill-rule="nonzero"/><path fill="#ffffff" d="M 566.859375 519.578125 C 565.222656 519.417969 562.71875 523.113281 563.589844 525.664062 C 563.917969 526.617188 564.601562 527.050781 567.449219 528.773438 C 571.617188 531.304688 573.714844 532.570312 574.269531 532.785156 C 576.984375 533.816406 580.953125 535.324219 583.023438 533.375 C 584.605469 531.886719 584.792969 528.605469 583.464844 527.441406 C 582.042969 526.195312 579.914062 528.285156 575.605469 527.441406 C 574.71875 527.265625 572.957031 526.910156 571.308594 525.664062 C 568.03125 523.195312 568.40625 519.71875 566.859375 519.578125 " fill-opacity="1" fill-rule="nonzero"/><path fill="#ffffff" d="M 555.882812 524.621094 C 554.964844 524.566406 553.570312 526.730469 554.253906 528.183594 C 554.636719 529.027344 555.761719 529.703125 556.472656 529.375 C 557.101562 529.082031 557.183594 528.128906 557.214844 527.734375 C 557.335938 526.375 556.671875 524.667969 555.882812 524.621094 " fill-opacity="1" fill-rule="nonzero"/><path fill="#ffffff" d="M 499.335938 487.035156 C 498.578125 484.824219 494.007812 483.839844 490.886719 485.472656 C 489.109375 486.398438 487 488.59375 487.328125 491.265625 C 487.496094 492.707031 488.40625 494.433594 490 495.050781 C 492.441406 495.988281 494.988281 493.710938 496.226562 492.59375 C 497.105469 491.808594 500.074219 489.144531 499.335938 487.035156 " fill-opacity="1" fill-rule="nonzero"/><path fill="#ffffff" d="M 485.210938 498.050781 C 483.734375 497.027344 480.90625 499.070312 479.535156 500.054688 C 477.777344 501.332031 476.175781 502.492188 476.316406 504.066406 C 476.464844 505.734375 478.507812 507.074219 480.3125 507.179688 C 482.9375 507.328125 484.753906 504.882812 485.4375 503.289062 C 486.140625 501.640625 486.476562 498.929688 485.210938 498.050781 " fill-opacity="1" fill-rule="nonzero"/><path fill="#ffffff" d="M 585.695312 553.714844 C 585.722656 552.582031 587.050781 551.800781 589.691406 550.304688 C 593.824219 547.949219 595.894531 546.777344 598.148438 547.332031 C 601.136719 548.0625 601.023438 550.855469 604.675781 551.785156 C 605.171875 551.914062 607.273438 552.421875 609.566406 551.632812 C 612.152344 550.761719 612.414062 549.121094 614.3125 549.113281 C 616.328125 549.101562 618.070312 550.929688 618.464844 551.34375 C 619.417969 552.328125 619.382812 552.851562 620.390625 553.714844 C 621.449219 554.605469 622.519531 554.914062 623.511719 555.195312 C 624.785156 555.5625 628.269531 556.535156 631.367188 554.894531 C 633.007812 554.035156 632.585938 553.472656 633.886719 552.824219 C 636.472656 551.539062 638.644531 553.472656 646.203125 555.796875 C 649.480469 556.796875 651.128906 557.070312 651.09375 557.425781 C 651.035156 557.988281 646.851562 557.6875 638.347656 558.605469 C 638.253906 558.617188 637.445312 558.71875 635.816406 558.90625 C 623.285156 560.386719 623.304688 560.398438 622.921875 560.398438 C 615.765625 560.277344 615.382812 556.628906 610.015625 557.578125 C 606.0625 558.269531 605.996094 560.292969 601.859375 560.6875 C 598.347656 561.027344 595.601562 559.835938 592.070312 558.316406 C 588.953125 556.96875 585.636719 555.542969 585.695312 553.714844 " fill-opacity="1" fill-rule="nonzero"/><path fill="#ffffff" d="M 582.574219 556.828125 C 581.535156 556.386719 579.851562 555.691406 577.535156 555.496094 C 575.851562 555.355469 574.800781 555.5625 566.410156 558.167969 C 563.683594 559.011719 563.019531 559.226562 563 559.648438 C 562.9375 560.761719 567.367188 562.402344 571.75 562.617188 C 576.46875 562.84375 577.292969 561.222656 582.425781 561.429688 C 586.695312 561.605469 588.925781 562.835938 589.253906 562.179688 C 589.675781 561.308594 586.285156 558.410156 582.574219 556.828125 " fill-opacity="1" fill-rule="nonzero"/><path fill="#ffffff" d="M 666.667969 554.003906 C 668.25 553.246094 670.695312 552.28125 673.785156 551.933594 C 675.085938 551.785156 675.601562 551.839844 686.101562 553.714844 C 688.394531 554.117188 691.308594 554.679688 694.109375 556.828125 C 694.902344 557.445312 695.738281 558.101562 695.585938 558.605469 C 695.304688 559.609375 691.589844 559.226562 683.570312 558.605469 C 673.457031 557.839844 668.390625 557.445312 667.707031 557.578125 C 664.820312 558.101562 661.226562 559.234375 658.359375 557.277344 C 657.5625 556.734375 657.046875 556.09375 656.730469 555.644531 " fill-opacity="1" fill-rule="nonzero"/><path fill="#7a1c33" d="M 750.722656 376.25 C 750.675781 376.25 750.628906 376.242188 750.582031 376.214844 C 750.421875 376.136719 750.367188 375.941406 750.441406 375.792969 C 751.144531 374.433594 752.0625 373.242188 753.183594 372.25 C 755.945312 369.800781 759.160156 369.269531 760.828125 369.164062 C 760.984375 369.148438 761.144531 369.285156 761.164062 369.464844 C 761.164062 369.632812 761.042969 369.785156 760.863281 369.792969 C 759.273438 369.894531 756.21875 370.402344 753.605469 372.726562 C 752.539062 373.664062 751.667969 374.789062 751.003906 376.082031 C 750.945312 376.183594 750.832031 376.25 750.722656 376.25 " fill-opacity="1" fill-rule="nonzero"/><path fill="#7a1c33" d="M 768.1875 381.480469 C 768.058594 381.480469 767.933594 381.398438 767.886719 381.265625 C 767.597656 380.402344 766.867188 378.800781 765.179688 377.761719 C 762.054688 375.828125 758.578125 377.636719 758.4375 377.722656 C 758.277344 377.796875 758.09375 377.742188 758.007812 377.582031 C 757.921875 377.433594 757.988281 377.246094 758.140625 377.160156 C 758.296875 377.074219 762.082031 375.109375 765.519531 377.226562 C 767.371094 378.371094 768.167969 380.121094 768.488281 381.070312 C 768.542969 381.238281 768.449219 381.414062 768.28125 381.472656 C 768.253906 381.480469 768.214844 381.480469 768.1875 381.480469 " fill-opacity="1" fill-rule="nonzero"/><path fill="#7a1c33" d="M 729.085938 396.515625 C 729.023438 396.515625 728.945312 396.488281 728.890625 396.441406 C 728.75 396.328125 728.730469 396.128906 728.84375 396 C 729.621094 395.042969 730.097656 393.964844 730.21875 392.878906 C 730.511719 390.308594 728.824219 388.296875 728.011719 387.328125 C 727.308594 386.484375 726.472656 385.753906 725.527344 385.164062 C 725.378906 385.070312 725.332031 384.875 725.425781 384.734375 C 725.519531 384.582031 725.714844 384.535156 725.867188 384.628906 C 726.859375 385.257812 727.746094 386.027344 728.496094 386.917969 C 729.359375 387.957031 731.167969 390.113281 730.847656 392.945312 C 730.71875 394.152344 730.191406 395.34375 729.332031 396.394531 C 729.265625 396.46875 729.179688 396.515625 729.085938 396.515625 " fill-opacity="1" fill-rule="nonzero"/><path fill="#7a1c33" d="M 648.171875 407.640625 C 648.113281 407.640625 648.066406 407.632812 648.019531 407.601562 C 647.859375 407.527344 647.804688 407.332031 647.890625 407.179688 C 648.863281 405.371094 650.25 403.871094 651.886719 402.832031 C 656.824219 399.71875 662.359375 401.707031 663.417969 402.136719 C 663.578125 402.203125 663.652344 402.390625 663.585938 402.550781 C 663.519531 402.710938 663.332031 402.785156 663.171875 402.71875 C 662.171875 402.316406 656.898438 400.421875 652.226562 403.367188 C 650.671875 404.339844 649.367188 405.765625 648.441406 407.480469 C 648.386719 407.585938 648.28125 407.640625 648.171875 407.640625 " fill-opacity="1" fill-rule="nonzero"/><path fill="#7a1c33" d="M 695.445312 357.441406 C 694.652344 357.441406 693.910156 357.222656 693.320312 356.832031 C 691.972656 355.921875 691.316406 353.980469 691.683594 352.003906 C 691.71875 351.824219 691.878906 351.714844 692.046875 351.75 C 692.226562 351.777344 692.335938 351.949219 692.300781 352.117188 C 691.980469 353.859375 692.523438 355.539062 693.667969 356.304688 C 694.417969 356.800781 695.4375 356.933594 696.488281 356.671875 C 697.84375 356.324219 699.023438 355.359375 699.71875 354.027344 C 699.800781 353.867188 700 353.8125 700.148438 353.898438 C 700.296875 353.972656 700.363281 354.167969 700.28125 354.320312 C 699.503906 355.808594 698.179688 356.886719 696.644531 357.28125 C 696.234375 357.382812 695.832031 357.441406 695.445312 357.441406 " fill-opacity="1" fill-rule="nonzero"/><path fill="#7a1c33" d="M 706.722656 355.808594 C 704.960938 355.808594 703.546875 355.386719 703.296875 355.3125 C 702.414062 355.03125 701.5625 354.617188 700.777344 354.101562 C 700.625 354.007812 700.589844 353.8125 700.683594 353.664062 C 700.777344 353.523438 700.972656 353.476562 701.121094 353.578125 C 701.863281 354.066406 702.65625 354.441406 703.492188 354.703125 C 703.660156 354.757812 707.59375 355.976562 710.636719 354.234375 C 713.710938 352.464844 715.160156 348.234375 714.160156 343.953125 C 714.113281 343.785156 714.214844 343.605469 714.394531 343.566406 C 714.5625 343.53125 714.730469 343.632812 714.769531 343.800781 C 715.835938 348.359375 714.269531 352.875 710.945312 354.777344 C 709.570312 355.574219 708.042969 355.808594 706.722656 355.808594 " fill-opacity="1" fill-rule="nonzero"/><path fill="#7a1c33" d="M 662.070312 422.523438 C 661.984375 422.523438 661.898438 422.488281 661.835938 422.410156 C 661.722656 422.289062 661.730469 422.082031 661.863281 421.972656 C 663.894531 420.171875 665.570312 418.101562 666.835938 415.824219 C 668.738281 412.390625 669.203125 409.328125 669.917969 403.761719 C 670.910156 395.988281 671.191406 392.664062 671.351562 390.667969 C 671.507812 388.820312 671.546875 388.265625 671.996094 386.503906 C 672.5 384.554688 673.007812 383.019531 673.503906 381.527344 C 674.355469 378.941406 675.171875 376.503906 675.695312 372.445312 C 675.976562 370.347656 676.125 368.210938 676.144531 366.101562 C 676.144531 365.921875 676.285156 365.792969 676.453125 365.792969 C 676.632812 365.792969 676.773438 365.933594 676.773438 366.109375 C 676.753906 368.246094 676.605469 370.402344 676.324219 372.53125 C 675.789062 376.644531 674.964844 379.109375 674.101562 381.726562 C 673.605469 383.207031 673.101562 384.734375 672.613281 386.664062 C 672.171875 388.371094 672.125 388.914062 671.976562 390.722656 C 671.816406 392.71875 671.535156 396.054688 670.542969 403.84375 C 669.8125 409.488281 669.34375 412.597656 667.386719 416.121094 C 666.085938 418.476562 664.371094 420.601562 662.285156 422.441406 C 662.21875 422.496094 662.144531 422.523438 662.070312 422.523438 " fill-opacity="1" fill-rule="nonzero"/><path fill="#7a1c33" d="M 709.683594 391.171875 C 709.597656 391.171875 709.511719 391.136719 709.457031 391.078125 C 705.636719 387.246094 699.0625 379.136719 698.023438 367.835938 C 697.75 364.910156 697.863281 361.921875 698.359375 358.96875 C 698.386719 358.789062 698.546875 358.675781 698.714844 358.707031 C 698.894531 358.734375 699.003906 358.894531 698.976562 359.070312 C 698.492188 361.976562 698.378906 364.902344 698.648438 367.777344 C 699.671875 378.886719 706.140625 386.859375 709.898438 390.628906 C 710.019531 390.75 710.019531 390.957031 709.898438 391.078125 C 709.839844 391.136719 709.757812 391.171875 709.683594 391.171875 " fill-opacity="1" fill-rule="nonzero"/><path fill="#7a1c33" d="M 703.21875 428.980469 C 703.089844 428.980469 702.96875 428.980469 702.84375 428.980469 C 702.675781 428.972656 702.535156 428.832031 702.546875 428.652344 C 702.546875 428.484375 702.6875 428.34375 702.863281 428.34375 C 704.90625 428.390625 710.019531 428.089844 713.523438 424.222656 C 715.984375 421.503906 716.554688 418.230469 716.929688 416.066406 C 717.203125 414.519531 717.417969 412.054688 716.929688 409.121094 C 716.734375 407.960938 716.445312 406.804688 716.050781 405.691406 C 715.996094 405.523438 716.089844 405.34375 716.246094 405.289062 C 716.414062 405.230469 716.59375 405.316406 716.648438 405.484375 C 717.054688 406.628906 717.351562 407.820312 717.550781 409.019531 C 718.054688 412.035156 717.828125 414.578125 717.550781 416.179688 C 717.183594 418.277344 716.574219 421.792969 713.992188 424.640625 C 710.507812 428.484375 705.542969 428.980469 703.21875 428.980469 " fill-opacity="1" fill-rule="nonzero"/><path fill="#7a1c33" d="M 734.472656 420.003906 C 733.5625 420.003906 732.628906 419.929688 731.652344 419.769531 C 726.25 418.914062 722.324219 416.582031 719.976562 412.84375 C 718.027344 409.730469 717.726562 406.488281 717.8125 404.3125 C 717.820312 404.136719 717.980469 403.996094 718.148438 404.003906 C 718.316406 404.011719 718.457031 404.164062 718.449219 404.332031 C 718.363281 406.421875 718.644531 409.535156 720.507812 412.503906 C 722.757812 416.085938 726.539062 418.316406 731.746094 419.148438 C 736.964844 419.984375 741.007812 418.269531 744.925781 416.609375 C 748.8125 414.96875 752.371094 412.664062 755.515625 409.769531 C 755.636719 409.65625 755.84375 409.65625 755.957031 409.785156 C 756.078125 409.917969 756.070312 410.113281 755.9375 410.238281 C 752.746094 413.179688 749.121094 415.523438 745.175781 417.191406 C 741.898438 418.578125 738.535156 420.003906 734.472656 420.003906 " fill-opacity="1" fill-rule="nonzero"/><path fill="#ffffff" d="M 727.027344 491.996094 C 726.980469 491.996094 726.933594 491.96875 726.894531 491.929688 C 724.265625 488.753906 722.308594 485.238281 721.078125 481.488281 C 719.683594 477.1875 719.636719 473.765625 719.589844 470.746094 C 719.292969 450.316406 719.609375 438.328125 719.628906 437.828125 C 719.703125 435.269531 719.824219 430.800781 719.964844 425.140625 C 719.964844 425.035156 720.058594 424.980469 720.132812 424.96875 C 720.226562 424.96875 720.300781 425.046875 720.300781 425.140625 C 720.160156 430.808594 720.039062 435.28125 719.976562 437.839844 C 719.957031 438.335938 719.628906 450.316406 719.9375 470.738281 C 719.976562 473.738281 720.03125 477.128906 721.40625 481.375 C 722.617188 485.085938 724.554688 488.566406 727.15625 491.714844 C 727.222656 491.78125 727.214844 491.890625 727.140625 491.949219 C 727.101562 491.976562 727.0625 491.996094 727.027344 491.996094 " fill-opacity="1" fill-rule="nonzero"/><path fill="#ffffff" d="M 720.59375 425.054688 C 719.367188 425.054688 718.128906 424.953125 716.914062 424.753906 C 716.828125 424.734375 716.761719 424.652344 716.78125 424.558594 C 716.789062 424.464844 716.875 424.398438 716.976562 424.417969 C 718.289062 424.632812 719.617188 424.726562 720.949219 424.707031 C 723.394531 424.671875 725.820312 424.222656 728.160156 423.386719 C 728.246094 423.347656 728.347656 423.394531 728.375 423.488281 C 728.414062 423.574219 728.367188 423.667969 728.273438 423.707031 C 725.902344 424.558594 723.441406 425.007812 720.949219 425.046875 C 720.835938 425.054688 720.714844 425.054688 720.59375 425.054688 " fill-opacity="1" fill-rule="nonzero"/><path fill="#ffffff" d="M 743.941406 472.988281 C 743.914062 472.988281 743.882812 472.988281 743.855469 472.96875 C 742.761719 472.398438 741.796875 471.628906 740.992188 470.710938 C 740.007812 469.585938 739.277344 468.226562 738.882812 466.78125 C 738.855469 466.6875 738.910156 466.59375 738.996094 466.566406 C 739.089844 466.546875 739.183594 466.605469 739.210938 466.6875 C 739.59375 468.085938 740.296875 469.398438 741.253906 470.484375 C 742.03125 471.375 742.957031 472.117188 744.015625 472.667969 C 744.101562 472.714844 744.128906 472.820312 744.089844 472.902344 C 744.054688 472.960938 743.996094 472.988281 743.941406 472.988281 " fill-opacity="1" fill-rule="nonzero"/><path fill="#ffffff" d="M 695.738281 502.96875 C 695.71875 502.96875 695.710938 502.96875 695.691406 502.96875 C 695.605469 502.941406 695.550781 502.847656 695.570312 502.765625 C 696.703125 498.527344 697.496094 494.292969 697.9375 490.167969 C 698.003906 489.566406 698.058594 488.996094 698.105469 488.453125 C 698.320312 486.210938 698.5 484.28125 699.285156 481.824219 C 700.15625 479.070312 701.507812 476.457031 703.3125 474.054688 C 703.371094 473.980469 703.472656 473.960938 703.546875 474.019531 C 703.621094 474.074219 703.640625 474.1875 703.585938 474.261719 C 701.804688 476.632812 700.464844 479.210938 699.605469 481.929688 C 698.835938 484.355469 698.667969 486.175781 698.453125 488.480469 C 698.398438 489.023438 698.339844 489.597656 698.273438 490.203125 C 697.835938 494.347656 697.039062 498.601562 695.90625 502.847656 C 695.878906 502.921875 695.8125 502.96875 695.738281 502.96875 " fill-opacity="1" fill-rule="nonzero"/><path fill="#ffffff" d="M 741.609375 423.996094 C 740.851562 423.996094 740.082031 423.910156 739.34375 423.753906 C 739.25 423.722656 739.191406 423.640625 739.210938 423.546875 C 739.230469 423.453125 739.324219 423.394531 739.417969 423.414062 C 740.859375 423.742188 742.375 423.742188 743.78125 423.414062 C 746.554688 422.777344 748.332031 421.082031 749.148438 420.132812 C 749.203125 420.058594 749.316406 420.050781 749.390625 420.117188 C 749.457031 420.171875 749.464844 420.285156 749.410156 420.351562 C 748.566406 421.34375 746.722656 423.085938 743.867188 423.753906 C 743.136719 423.910156 742.375 423.996094 741.609375 423.996094 " fill-opacity="1" fill-rule="nonzero"/><path fill="#09101c" d="M 761.558594 545.589844 C 760.902344 545.589844 760.378906 545.464844 760.097656 545.390625 L 760.265625 544.78125 C 760.769531 544.921875 762.109375 545.1875 763.550781 544.519531 C 765.070312 543.816406 765.734375 542.53125 765.949219 542.015625 L 766.53125 542.25 C 766.285156 542.84375 765.539062 544.296875 763.8125 545.09375 C 763 545.464844 762.210938 545.589844 761.558594 545.589844 " fill-opacity="1" fill-rule="nonzero"/><path fill="#09101c" d="M 660.597656 543.546875 L 659.988281 543.40625 C 661.140625 538.558594 662.414062 533.683594 663.773438 528.914062 C 664.585938 526.046875 665.449219 523.167969 666.328125 520.339844 L 666.929688 520.527344 C 666.046875 523.347656 665.1875 526.222656 664.371094 529.082031 C 663.023438 533.855469 661.75 538.71875 660.597656 543.546875 " fill-opacity="1" fill-rule="nonzero"/></svg>