<svg xmlns="http://www.w3.org/2000/svg" xmlns:xlink="http://www.w3.org/1999/xlink" width="1920" zoomAndPan="magnify" viewBox="0 0 1440 809.999993" height="1080" preserveAspectRatio="xMidYMid meet" version="1.0"><defs><clipPath id="25833b6dfe"><path d="M 432.90625 280 L 1007.242188 280 L 1007.242188 560 L 432.90625 560 Z M 432.90625 280 " clip-rule="nonzero"/></clipPath><clipPath id="0e8dbb8c8d"><path d="M 438 517 L 999 517 L 999 565.050781 L 438 565.050781 Z M 438 517 " clip-rule="nonzero"/></clipPath></defs><g clip-path="url(#25833b6dfe)"><path fill="#dae2ed" d="M 446.574219 541.988281 C 442.726562 537.960938 432.835938 527.585938 432.90625 513.804688 C 433.003906 496.046875 449.59375 491.421875 458.535156 471.113281 C 472.082031 440.339844 447.460938 420.304688 460.238281 402.800781 C 476.21875 380.941406 520.464844 404.1875 539.695312 379.746094 C 551.945312 364.167969 541.625 344.972656 557.628906 332.785156 C 568.824219 324.265625 583.484375 326.351562 586.675781 326.804688 C 605.78125 329.539062 617.6875 344.742188 621.703125 349.859375 C 632 363.015625 630.023438 370.265625 637.082031 372.914062 C 648.398438 377.179688 668.550781 364.167969 677.230469 346.445312 C 688.246094 323.929688 674.246094 307.082031 687.480469 291.792969 C 693.6875 284.628906 703.484375 280.578125 712.257812 280.699219 C 731.03125 280.949219 734.496094 300.144531 752.40625 306.316406 C 781.414062 316.296875 799.9375 275.414062 832.699219 281.546875 C 858.953125 286.472656 856.988281 314.546875 895.070312 327.65625 C 915.992188 334.859375 923.675781 328.832031 935.21875 338.765625 C 944.640625 346.875 948.464844 362.789062 955.71875 394.269531 C 962.109375 421.972656 961.917969 431.03125 971.097656 438.664062 C 981.648438 447.445312 989.65625 441.957031 998.429688 450.621094 C 1010.597656 462.628906 1008.910156 486.699219 1000.996094 502.710938 C 999.628906 505.464844 993.023438 518.226562 973.664062 529.179688 C 950.25 542.417969 927.425781 542.121094 895.070312 541.136719 C 845.765625 539.628906 821.105469 538.871094 812.199219 537.722656 C 682.242188 520.945312 493.191406 590.863281 446.574219 541.988281 " fill-opacity="1" fill-rule="nonzero"/></g><path fill="#ffffff" d="M 842.699219 526.890625 C 835.277344 526.375 826.707031 526.171875 816.46875 526.613281 C 793.8125 527.597656 794.445312 530.351562 769.488281 532.59375 C 761.9375 533.265625 755.007812 533.816406 748.652344 534.222656 C 754.382812 526.183594 758.878906 518.671875 762.414062 511.71875 C 762.847656 510.871094 763.265625 510.042969 763.675781 509.214844 C 769.199219 497.832031 772.136719 488.042969 773.753906 480.039062 C 775.027344 473.785156 775.671875 467.757812 779.078125 458.398438 C 779.472656 457.320312 779.871094 456.289062 780.277344 455.28125 C 783.980469 459.238281 786.628906 461.070312 789.988281 460.867188 C 793.941406 460.628906 796.101562 457.75 800.03125 452.632812 C 801.027344 458.613281 802.875 464.390625 806.410156 470.164062 C 809.300781 474.875 812.210938 477.808594 813.628906 479.273438 C 818.984375 484.832031 826.035156 493.339844 834.941406 507.046875 C 835.492188 507.886719 836.042969 508.738281 836.59375 509.613281 C 833.527344 513.828125 833.382812 515.53125 833.933594 516.273438 C 833.980469 516.320312 834.03125 516.382812 834.078125 516.429688 C 835.886719 518.515625 837.710938 520.671875 839.53125 522.914062 C 840.625 524.253906 841.667969 525.574219 842.699219 526.890625 " fill-opacity="1" fill-rule="nonzero"/><path fill="#ffffff" d="M 966.855469 517.160156 C 966.855469 517.183594 966.832031 517.195312 966.832031 517.21875 C 965.09375 520.753906 954.734375 517.363281 942.902344 517.21875 C 926.480469 517.027344 917.488281 523.199219 905.320312 527.476562 C 890.636719 532.617188 880.722656 531.671875 867.800781 529.839844 C 865.714844 520.40625 863.316406 512.726562 861.300781 507 L 861.289062 507 C 861.253906 506.890625 861.21875 506.785156 861.183594 506.6875 C 861.050781 506.316406 860.582031 505 859.816406 502.984375 C 856.578125 494.332031 848.128906 472.886719 839.53125 460.304688 C 838.695312 459.070312 836.332031 455.679688 834.414062 450.621094 C 833.765625 448.945312 833.261719 447.300781 832.878906 445.757812 C 832.878906 445.746094 832.878906 445.746094 832.878906 445.746094 C 832.914062 445.179688 832.953125 444.59375 832.988281 443.984375 C 833.683594 433.714844 835.050781 425.855469 836.59375 418.605469 C 840.828125 416.664062 845.035156 415.742188 848.941406 416.472656 C 860.714844 418.640625 860.414062 434.039062 875.414062 436.960938 C 885.015625 438.832031 891.128906 433.691406 896.773438 437.8125 C 901.871094 441.539062 904.433594 450.203125 901.90625 455.75 C 900.167969 459.535156 896.460938 460.988281 897.0625 462.582031 C 897.828125 464.640625 903.941406 461.898438 907.886719 465.144531 C 912 468.511719 909.515625 474.921875 913.582031 477.089844 C 915.019531 477.859375 915.5 477.152344 920.125 477.378906 C 922.082031 477.472656 926.539062 477.679688 929.238281 478.804688 C 933.746094 480.671875 933.3125 485.070312 936.070312 490.128906 C 936.539062 490.992188 937.089844 491.851562 937.785156 492.738281 C 940.890625 496.742188 944.199219 497.75 948.035156 499.101562 C 951.511719 500.324219 955.417969 501.847656 959.996094 506.125 C 961.53125 507.5625 968.316406 513.925781 966.855469 517.160156 " fill-opacity="1" fill-rule="nonzero"/><path fill="#ffffff" d="M 757.03125 429.4375 C 754.203125 436.914062 751.675781 443.972656 749.074219 453.460938 C 746.925781 461.371094 745.738281 467.242188 745.285156 469.410156 C 743.628906 477.34375 740.71875 488.785156 735.359375 505.886719 C 733.824219 505.394531 732.351562 504.890625 730.910156 504.375 C 730.359375 506.628906 729.796875 508.878906 729.222656 511.132812 C 729.160156 511.359375 729.113281 511.601562 729.054688 511.816406 C 727.039062 519.75 724.953125 527.585938 722.820312 535.289062 C 694.289062 535.636719 683.175781 532.210938 675.515625 528.328125 C 672.074219 526.578125 667.21875 523.75 659.488281 521.773438 C 639.394531 516.691406 622.109375 523.09375 621.894531 522.15625 C 621.796875 521.773438 624.664062 520.996094 629.171875 519.664062 C 634.3125 518.167969 641.578125 515.984375 649.035156 512.953125 C 664.824219 506.554688 686.078125 497.941406 691.757812 480.507812 C 695.65625 468.5 688.175781 464.519531 693.460938 454.035156 C 697.128906 446.726562 702.210938 445.78125 710.925781 440.078125 C 714.234375 437.921875 718.046875 435.09375 722.507812 430.980469 C 732.253906 421.996094 733.261719 417.800781 738.738281 417.320312 C 742.023438 417.035156 745.894531 418.195312 757.03125 429.4375 " fill-opacity="1" fill-rule="nonzero"/><path fill="#e56d13" d="M 642.09375 449.628906 C 641.277344 454.457031 639.660156 460.253906 636.53125 466.292969 C 626.414062 485.828125 594.296875 504.253906 587.898438 506.578125 L 583.628906 503.859375 C 583.664062 503.65625 583.6875 503.464844 583.6875 503.273438 C 583.75 501.570312 582.65625 500.0625 583.675781 498.71875 C 584.203125 498.046875 584.695312 498.144531 587.058594 497.316406 C 587.070312 497.304688 587.082031 497.304688 587.105469 497.304688 C 590.269531 496.191406 591.839844 495.640625 592.65625 494.453125 C 592.917969 494.070312 593.769531 492.632812 592.777344 489.589844 C 595.953125 489.21875 600.53125 488.03125 603.902344 484.351562 C 605.316406 482.808594 607.761719 480.132812 607.042969 476.945312 C 606.8125 475.964844 606.335938 475.136719 605.734375 474.453125 C 607.917969 472.191406 610.0625 469.566406 612.015625 466.558594 C 614.894531 462.136719 616.726562 457.847656 617.902344 454.226562 L 605.792969 467.695312 C 605.832031 467.132812 605.832031 466.558594 605.757812 465.984375 C 605.410156 463.300781 603.695312 460.566406 601.203125 459.585938 C 600.066406 459.140625 599.046875 459.175781 598.121094 459.34375 C 598.207031 459.226562 598.277344 459.09375 598.351562 458.972656 C 600.867188 454.613281 602.1875 450.417969 602.90625 447.015625 L 593.015625 457.980469 C 592.570312 456.074219 593.53125 453.378906 591.949219 451.761719 C 590.535156 450.320312 587.511719 450.105469 584.71875 450.875 C 582.394531 451.519531 580.226562 452.851562 579.265625 454.742188 C 578.617188 456.039062 578.714844 457.246094 579.039062 458.457031 C 579.601562 460.628906 580.894531 462.808594 579.839844 465.5625 C 579.816406 465.613281 579.804688 465.660156 579.78125 465.71875 C 577.828125 470.476562 570.226562 473.507812 566.882812 471.125 C 566.019531 470.5 565.480469 469.554688 565.15625 468.570312 C 564.976562 468.105469 564.867188 467.613281 564.785156 467.167969 C 564.582031 465.972656 564.605469 464.976562 564.605469 464.84375 C 564.675781 462.855469 565.492188 461.695312 565.960938 460.640625 C 566.234375 460.015625 566.402344 459.429688 566.175781 458.734375 C 565.753906 457.441406 564.222656 456.347656 562.265625 455.726562 C 563.371094 454.972656 564.449219 454.179688 565.515625 453.355469 C 565.828125 453.113281 566.140625 452.863281 566.449219 452.609375 C 566.761719 452.359375 567.074219 452.09375 567.398438 451.84375 C 567.683594 451.59375 567.984375 451.339844 568.261719 451.089844 C 568.511719 450.859375 568.765625 450.644531 569.003906 450.429688 C 569.640625 449.84375 570.261719 449.253906 570.851562 448.644531 C 571.136719 448.355469 571.414062 448.082031 571.6875 447.78125 C 571.953125 447.507812 572.21875 447.207031 572.480469 446.917969 C 572.746094 446.621094 572.996094 446.332031 573.246094 446.03125 C 573.246094 446.03125 573.257812 446.03125 573.257812 446.019531 C 573.511719 445.722656 573.761719 445.421875 574.003906 445.109375 C 574.253906 444.796875 574.496094 444.5 574.722656 444.1875 C 575.835938 442.714844 576.855469 441.15625 577.742188 439.527344 C 577.875 439.296875 578.007812 439.046875 578.125 438.808594 C 578.152344 438.769531 578.164062 438.734375 578.175781 438.710938 C 578.332031 438.433594 578.449219 438.171875 578.582031 437.894531 C 579.027344 436.984375 579.421875 436.050781 579.78125 435.105469 C 579.851562 434.925781 579.914062 434.734375 579.972656 434.566406 C 580.082031 434.289062 580.164062 434.015625 580.25 433.726562 C 580.273438 433.703125 580.273438 433.667969 580.285156 433.628906 C 580.367188 433.378906 580.453125 433.113281 580.523438 432.863281 C 580.667969 432.359375 580.8125 431.84375 580.945312 431.328125 C 581.421875 429.339844 581.757812 427.148438 581.855469 424.773438 L 626.269531 443.109375 L 630.09375 444.679688 L 642.09375 449.628906 " fill-opacity="1" fill-rule="nonzero"/><g clip-path="url(#0e8dbb8c8d)"><path fill="#8c8cf4" d="M 998.429688 530.878906 C 998.648438 539.101562 957.601562 546.433594 939.488281 549.667969 C 893.992188 557.804688 857.644531 559.339844 840.394531 559.914062 C 794.589844 561.449219 787.984375 559.328125 741.304688 559.914062 C 683.917969 560.65625 672.902344 564.121094 631.953125 565.042969 C 631.953125 565.042969 529.167969 567.871094 490.136719 555.648438 C 487.269531 554.75 482.992188 553.097656 476.46875 552.519531 C 461.929688 551.226562 455.742188 557.039062 448 553.277344 C 442.53125 550.628906 437.605469 543.847656 438.886719 539.425781 C 439.929688 535.792969 445.0625 534.078125 453.082031 533.289062 C 452.015625 534.488281 451.5 535.324219 451.128906 536.574219 C 450.265625 539.507812 450.300781 544.167969 452.84375 546.542969 C 456.785156 550.230469 462.828125 544.78125 475.621094 544.265625 C 478.386719 544.15625 489.871094 543.820312 501.25 549.667969 C 506.90625 552.582031 507.890625 554.628906 513.777344 556.5 C 520.777344 558.726562 526.855469 558.226562 530.007812 557.925781 C 538.253906 557.160156 538.519531 555 549.367188 552.796875 C 557.855469 551.082031 562.085938 550.230469 567.589844 551.382812 C 574.554688 552.832031 576.351562 555.914062 581.269531 554.796875 C 585.34375 553.875 585.679688 551.40625 591.515625 549.957031 C 595.03125 549.082031 598.492188 549.09375 599.777344 549.105469 C 604.535156 549.140625 605.351562 550.050781 608.035156 549.394531 C 608.382812 549.296875 613.980469 547.835938 614.871094 543.976562 C 615.863281 539.617188 610.0625 535.433594 608.886719 534.582031 C 604.417969 531.359375 599.535156 531.023438 596.9375 530.878906 C 588.351562 530.414062 586.097656 533.996094 582.40625 532.03125 C 579.578125 530.519531 579.363281 527.597656 578.570312 524.648438 C 592.152344 523.257812 608.730469 521.605469 629.171875 519.664062 C 624.664062 520.996094 621.796875 521.773438 621.894531 522.15625 C 622.109375 523.09375 639.394531 516.691406 659.488281 521.773438 C 667.21875 523.75 672.074219 526.578125 675.515625 528.328125 C 683.175781 532.210938 694.289062 535.636719 722.820312 535.289062 C 722.6875 535.816406 722.542969 536.34375 722.398438 536.859375 C 721.308594 537.640625 720.003906 538.550781 718.515625 539.566406 C 710.554688 545.019531 708.410156 545.882812 708.554688 546.6875 C 708.792969 548.050781 715.613281 548.710938 742.011719 546.253906 L 742.625 542.277344 C 744.769531 539.53125 746.78125 536.847656 748.652344 534.222656 C 755.007812 533.816406 761.9375 533.265625 769.488281 532.59375 C 794.445312 530.351562 793.8125 527.597656 816.46875 526.613281 C 826.707031 526.171875 835.277344 526.375 842.699219 526.890625 C 845.777344 530.820312 848.621094 534.726562 851.257812 538.539062 C 851.351562 539.183594 851.351562 539.867188 851.207031 540.5625 C 850.070312 546.53125 840.25 548.496094 840.539062 549.957031 C 840.742188 551 849.664062 550.542969 870.003906 548.242188 L 869.550781 540.023438 C 869.476562 538.679688 869.324219 537.339844 869.058594 536.007812 C 868.664062 533.875 868.242188 531.816406 867.800781 529.839844 C 880.722656 531.671875 890.636719 532.617188 905.320312 527.476562 C 917.488281 523.199219 926.480469 517.027344 942.902344 517.21875 C 954.734375 517.363281 965.09375 520.753906 966.832031 517.21875 C 966.832031 517.195312 966.855469 517.183594 966.855469 517.160156 C 971.027344 518.382812 975.59375 519.820312 980.496094 521.5 C 997.230469 527.25 998.394531 529.539062 998.429688 530.878906 " fill-opacity="1" fill-rule="nonzero"/></g><path fill="#d6476a" d="M 780.167969 268.105469 C 780.097656 268.476562 779.84375 269.710938 778.816406 270.308594 C 778.527344 270.476562 778.203125 270.570312 777.855469 270.609375 C 777.28125 270.667969 776.644531 270.546875 776.035156 270.25 C 776.355469 269.851562 776.632812 269.410156 776.800781 268.882812 C 776.882812 268.617188 777.53125 266.523438 776.320312 265.417969 C 775.457031 264.628906 773.898438 264.617188 772.796875 265.289062 C 772.484375 265 772.101562 264.675781 771.667969 264.378906 C 767.449219 261.417969 761.9375 262.207031 760.472656 262.4375 C 759.105469 262.652344 758.039062 262.949219 757.175781 263.203125 C 756.0625 263.539062 755.269531 263.765625 754.597656 263.609375 C 754.347656 263.5625 754.109375 263.453125 753.878906 263.285156 C 752.800781 262.484375 752.511719 260.757812 752.871094 259.5 C 753.101562 258.710938 753.566406 258.109375 754.132812 257.644531 C 755.007812 256.898438 756.109375 256.46875 756.914062 256.167969 C 756.972656 256.144531 757.042969 256.121094 757.105469 256.109375 C 762.320312 254.238281 767.726562 256.179688 770.878906 257.644531 C 771.585938 257.964844 772.171875 258.265625 772.617188 258.492188 C 773.347656 258.863281 777.183594 260.878906 779.210938 264.257812 C 779.28125 264.351562 779.328125 264.449219 779.378906 264.542969 C 780.265625 266.113281 780.335938 267.242188 780.167969 268.105469 " fill-opacity="1" fill-rule="nonzero"/><path fill="#22262d" d="M 780.683594 257.644531 C 780.566406 259.738281 780.097656 261.992188 779.210938 264.257812 C 777.183594 260.878906 773.347656 258.863281 772.617188 258.492188 C 772.171875 258.265625 771.585938 257.964844 770.878906 257.644531 C 767.726562 256.179688 762.320312 254.238281 757.105469 256.109375 C 757.464844 254.886719 758.136719 253.171875 759.453125 251.449219 C 762.449219 247.542969 766.585938 246.453125 767.785156 246.1875 C 769.042969 245.910156 773.359375 244.941406 776.535156 246.964844 C 779.378906 248.800781 780.984375 252.8125 780.683594 257.644531 " fill-opacity="1" fill-rule="nonzero"/><path fill="#09101c" d="M 777.855469 270.609375 C 777.664062 271.386719 777.304688 272.046875 776.835938 272.453125 C 776.609375 272.667969 776.34375 272.8125 776.070312 272.882812 C 775.171875 273.136719 774.042969 272.632812 773.5625 272.40625 C 773.359375 272.308594 773.167969 272.214844 773.011719 272.117188 C 773.828125 271.867188 775.132812 271.316406 776.035156 270.25 C 776.644531 270.546875 777.28125 270.667969 777.855469 270.609375 " fill-opacity="1" fill-rule="nonzero"/><path fill="#09101c" d="M 772.796875 265.289062 C 772.472656 265.492188 772.171875 265.765625 771.957031 266.078125 C 771.453125 266.820312 771.464844 267.660156 771.550781 268.199219 L 771.550781 268.210938 C 771.167969 268.257812 770.710938 268.246094 770.242188 268.078125 C 769.007812 267.613281 768.132812 266.125 768.207031 264.351562 C 767.832031 264.53125 767.378906 264.699219 766.875 264.90625 C 763.757812 266.089844 759.707031 267.648438 757.128906 267.144531 C 756.515625 267.039062 755.988281 266.796875 755.582031 266.414062 C 755.246094 266.101562 754.625 265.347656 754.597656 263.609375 C 755.269531 263.765625 756.0625 263.539062 757.175781 263.203125 C 758.039062 262.949219 759.105469 262.652344 760.472656 262.4375 C 761.9375 262.207031 767.449219 261.417969 771.667969 264.378906 C 772.101562 264.675781 772.484375 265 772.796875 265.289062 " fill-opacity="1" fill-rule="nonzero"/><path fill="#ff8a86" d="M 780.457031 278.46875 C 780.421875 281.105469 778.394531 283.65625 775.253906 285.273438 C 774.941406 285.441406 774.605469 285.609375 774.269531 285.742188 C 773.457031 284.566406 772.59375 283.371094 771.667969 282.183594 C 770.78125 281.03125 769.847656 279.871094 768.839844 278.707031 C 768.527344 278.335938 768.21875 277.964844 767.894531 277.605469 C 765.6875 277.664062 760.640625 277.402344 758.460938 274.070312 C 757.332031 272.371094 757.1875 270.1875 757.128906 267.144531 C 759.707031 267.648438 763.757812 266.089844 766.875 264.90625 C 767.378906 264.699219 767.832031 264.53125 768.207031 264.351562 C 768.132812 266.125 769.007812 267.613281 770.242188 268.078125 C 770.710938 268.246094 771.167969 268.257812 771.550781 268.210938 L 771.550781 268.199219 C 771.464844 267.660156 771.453125 266.820312 771.957031 266.078125 C 772.171875 265.765625 772.472656 265.492188 772.796875 265.289062 C 773.898438 264.617188 775.457031 264.628906 776.320312 265.417969 C 777.53125 266.523438 776.882812 268.617188 776.800781 268.882812 C 776.632812 269.410156 776.355469 269.851562 776.035156 270.25 C 775.132812 271.316406 773.828125 271.867188 773.011719 272.117188 C 773.167969 272.214844 773.359375 272.308594 773.5625 272.40625 C 774.042969 272.632812 775.171875 273.136719 776.070312 272.882812 C 776.34375 272.8125 776.609375 272.667969 776.835938 272.453125 C 777.101562 272.957031 777.398438 273.484375 777.746094 274.011719 C 778.480469 275.136719 779.257812 276.097656 780 276.886719 C 780.097656 277.007812 780.21875 277.125 780.324219 277.234375 C 780.433594 277.703125 780.46875 278.121094 780.457031 278.46875 " fill-opacity="1" fill-rule="nonzero"/><path fill="#22262d" d="M 775.253906 292.164062 C 774.667969 293.972656 773.585938 295.230469 772.339844 295.640625 C 770.304688 296.324219 767.484375 294.871094 766.359375 292.800781 C 765.507812 291.21875 765.722656 289.445312 766.417969 287.839844 C 767.148438 286.113281 768.433594 284.566406 769.488281 283.644531 C 770.242188 282.972656 771 282.507812 771.667969 282.183594 C 772.59375 283.371094 773.457031 284.566406 774.269531 285.742188 C 774.605469 285.609375 774.941406 285.441406 775.253906 285.273438 C 775.972656 287.933594 775.867188 290.332031 775.253906 292.164062 " fill-opacity="1" fill-rule="nonzero"/><path fill="#22262d" d="M 789.28125 281.667969 C 788.753906 284.578125 785.960938 287.683594 785.070312 288.664062 C 783.667969 290.234375 781.082031 293.136719 777.53125 292.800781 C 776.667969 292.714844 775.902344 292.464844 775.253906 292.164062 C 775.867188 290.332031 775.972656 287.933594 775.253906 285.273438 C 778.394531 283.65625 780.421875 281.105469 780.457031 278.46875 C 780.46875 278.121094 780.433594 277.703125 780.324219 277.234375 C 780.289062 277.113281 780.265625 276.972656 780.21875 276.839844 C 784.066406 275.796875 787.589844 276.765625 788.847656 278.851562 C 789.375 279.703125 789.460938 280.683594 789.28125 281.667969 " fill-opacity="1" fill-rule="nonzero"/><path fill="#22262d" d="M 706.359375 398.34375 C 706.359375 398.582031 706.335938 398.820312 706.289062 399.046875 C 705.964844 400.582031 704.71875 402.007812 703.613281 403.46875 C 702.390625 405.101562 701.121094 405.734375 699.300781 404.238281 C 699.035156 404.023438 698.773438 403.769531 698.496094 403.46875 C 698.472656 403.445312 698.449219 403.410156 698.414062 403.386719 C 695.453125 400.257812 693.75 400.679688 691.183594 400.582031 C 687.660156 400.425781 686.59375 403.148438 685.105469 402.140625 C 684.996094 402.070312 684.902344 401.984375 684.804688 401.886719 C 683.714844 400.871094 683.414062 398.820312 683.773438 397.300781 C 684.207031 395.5 685.691406 393.835938 687.730469 392.542969 C 691.6875 390.050781 697.667969 389.007812 701.816406 391.414062 C 702.042969 391.546875 705.089844 393.367188 706.058594 396.386719 C 706.265625 396.988281 706.371094 397.648438 706.359375 398.34375 " fill-opacity="1" fill-rule="nonzero"/><path fill="#ffffff" d="M 699.300781 404.238281 C 699.167969 405.039062 698.964844 405.976562 698.605469 406.96875 L 698.59375 406.96875 C 698.269531 407.878906 697.800781 408.828125 697.152344 409.785156 C 693.328125 415.441406 686.570312 415.789062 685.058594 415.824219 C 684.277344 415.835938 683.414062 415.859375 682.566406 415.789062 L 682.550781 415.789062 C 681.078125 415.679688 679.675781 415.285156 678.933594 414.195312 C 678.921875 414.171875 678.90625 414.148438 678.894531 414.121094 C 677.230469 411.511719 680.261719 406.476562 682.566406 403.9375 C 683.332031 403.085938 684.109375 402.414062 684.804688 401.886719 C 684.902344 401.984375 684.996094 402.070312 685.105469 402.140625 C 686.59375 403.148438 687.660156 400.425781 691.183594 400.582031 C 693.75 400.679688 695.453125 400.257812 698.414062 403.386719 C 698.449219 403.410156 698.472656 403.445312 698.496094 403.46875 C 698.773438 403.769531 699.035156 404.023438 699.300781 404.238281 " fill-opacity="1" fill-rule="nonzero"/><path fill="#09101c" d="M 682.550781 415.789062 L 633.871094 442.605469 L 630.046875 441.035156 L 678.894531 414.121094 C 678.90625 414.148438 678.921875 414.171875 678.933594 414.195312 C 679.675781 415.285156 681.078125 415.679688 682.550781 415.789062 " fill-opacity="1" fill-rule="nonzero"/><path fill="#09101c" d="M 879.703125 307.25 L 864.300781 315.734375 L 847.984375 324.722656 C 846.1875 324.515625 844.207031 324.363281 842.097656 324.277344 L 862.703125 312.917969 L 878.15625 304.421875 C 878.9375 303.992188 879.917969 304.277344 880.351562 305.058594 C 880.769531 305.847656 880.496094 306.820312 879.703125 307.25 " fill-opacity="1" fill-rule="nonzero"/><path fill="#ab2641" d="M 862.703125 312.917969 L 842.097656 324.277344 C 840.742188 324.21875 839.316406 324.195312 837.84375 324.21875 C 828.828125 324.351562 817.917969 326.097656 807.214844 331.933594 C 805.414062 332.90625 803.738281 333.949219 802.167969 335.027344 C 800.007812 335.300781 797.984375 336.273438 796.542969 337.699219 C 796.027344 338.191406 795.332031 339.015625 794.78125 340.308594 C 793.714844 340.765625 792.625 341.351562 791.605469 342.132812 C 790.621094 342.886719 789.710938 343.808594 788.957031 344.9375 C 787.9375 346.433594 787.566406 347.75 786.859375 350.230469 C 786.4375 351.742188 786.042969 353.539062 785.765625 355.289062 L 767.546875 365.316406 C 767.332031 364.132812 767.007812 362.898438 766.550781 361.628906 C 766.058594 360.273438 765.328125 358.957031 763.890625 356.308594 C 757.273438 344.167969 751.46875 340.730469 747.179688 332.785156 C 745.835938 330.28125 744.386719 326.902344 743.5 322.46875 C 742.851562 326.039062 742.191406 329.957031 741.582031 334.210938 C 738.175781 357.542969 739.484375 364.875 734.746094 374.054688 C 731.617188 380.117188 725.46875 387.75 711.945312 393.957031 C 710.125 394.796875 708.171875 395.597656 706.058594 396.386719 C 705.089844 393.367188 702.042969 391.546875 701.816406 391.414062 C 697.667969 389.007812 691.6875 390.050781 687.730469 392.542969 C 688.917969 389.1875 690.703125 384.910156 693.292969 380.59375 C 695.65625 376.675781 698.6875 372.710938 702.570312 369.308594 C 703.351562 368.625 704.179688 367.953125 705.042969 367.320312 C 705.269531 367.152344 705.484375 366.996094 705.699219 366.839844 C 705.964844 366.660156 706.214844 366.492188 706.46875 366.324219 C 708.015625 359.003906 710.386719 348.207031 713.109375 337.121094 C 715.855469 325.96875 718.949219 314.523438 721.933594 306.027344 C 722.773438 303.632812 724.113281 300.035156 727.339844 296.632812 C 735.179688 288.378906 747.898438 288.007812 755.820312 287.527344 C 759.707031 287.289062 763.265625 287.46875 766.417969 287.839844 C 765.722656 289.445312 765.507812 291.21875 766.359375 292.800781 C 767.484375 294.871094 770.304688 296.324219 772.339844 295.640625 C 773.585938 295.230469 774.667969 293.972656 775.253906 292.164062 C 775.902344 292.464844 776.667969 292.714844 777.53125 292.800781 C 781.082031 293.136719 783.667969 290.234375 785.070312 288.664062 C 785.960938 287.683594 788.753906 284.578125 789.28125 281.667969 C 792.289062 280.300781 795.875 278.863281 799.960938 277.570312 C 809.597656 274.503906 817.234375 272.082031 825.015625 273.292969 C 837.039062 275.171875 844.230469 285.644531 858.617188 306.605469 C 860.222656 308.941406 861.578125 311.023438 862.703125 312.917969 " fill-opacity="1" fill-rule="nonzero"/><path fill="#7a1c33" d="M 838.40625 326.363281 C 838.226562 326.363281 838.070312 326.242188 838.011719 326.074219 C 834.222656 314.1875 830.015625 302.277344 825.496094 290.667969 C 824.609375 288.367188 823.695312 286.089844 822.785156 283.835938 C 822.703125 283.632812 822.808594 283.394531 823.011719 283.308594 C 823.21875 283.226562 823.457031 283.320312 823.539062 283.539062 C 824.453125 285.789062 825.351562 288.066406 826.25 290.367188 C 830.769531 302.003906 834.988281 313.925781 838.789062 325.835938 C 838.847656 326.039062 838.730469 326.265625 838.527344 326.339844 C 838.476562 326.351562 838.441406 326.363281 838.40625 326.363281 " fill-opacity="1" fill-rule="nonzero"/><path fill="#7a1c33" d="M 729.148438 367.535156 C 729.054688 367.535156 728.957031 367.5 728.886719 367.4375 C 726.5 365.367188 722.605469 362.886719 717.570312 362.789062 C 714.296875 362.730469 710.566406 364.070312 706.683594 366.660156 C 706.503906 366.792969 706.253906 366.730469 706.132812 366.550781 C 706 366.359375 706.046875 366.121094 706.242188 365.988281 C 710.257812 363.304688 714.199219 361.914062 717.582031 361.976562 C 722.867188 362.082031 726.929688 364.671875 729.414062 366.828125 C 729.582031 366.972656 729.605469 367.234375 729.449219 367.402344 C 729.375 367.488281 729.257812 367.535156 729.148438 367.535156 " fill-opacity="1" fill-rule="nonzero"/><path fill="#22262d" d="M 811.566406 348.867188 C 811.15625 349.453125 810.652344 349.96875 810.078125 350.410156 C 808.398438 351.742188 806.121094 352.414062 803.726562 352.246094 C 803.90625 351.875 804.074219 351.503906 804.230469 351.144531 C 804.660156 350.171875 804.972656 349.203125 805.1875 348.289062 C 805.511719 346.863281 805.605469 345.535156 805.605469 344.371094 C 805.605469 344.097656 805.59375 343.84375 805.582031 343.605469 L 805.511719 343.125 C 805.332031 342.539062 804.671875 340.695312 802.800781 339.617188 C 802.128906 339.21875 801.460938 339.039062 800.957031 338.945312 L 800.714844 338.859375 C 799.625 338.957031 797.265625 339.257812 794.78125 340.308594 C 795.332031 339.015625 796.027344 338.191406 796.542969 337.699219 C 797.984375 336.273438 800.007812 335.300781 802.167969 335.027344 C 804.277344 334.726562 806.496094 335.097656 808.425781 336.34375 C 810.066406 337.398438 811.347656 338.992188 812.105469 340.789062 C 812.558594 341.820312 812.824219 342.933594 812.882812 344.050781 C 812.96875 345.75 812.570312 347.441406 811.566406 348.867188 " fill-opacity="1" fill-rule="nonzero"/><path fill="#ab2641" d="M 853.5 358.96875 C 852.933594 363.914062 849.207031 367.460938 843.644531 370.960938 C 840.875 372.710938 837.652344 374.449219 834.125 376.328125 C 828.804688 379.195312 824.824219 381.328125 819.035156 381.457031 C 816.035156 381.519531 808.078125 381.699219 802.527344 375.765625 C 801.207031 374.351562 800.25 372.855469 799.578125 371.429688 C 799.3125 375.203125 798.164062 380.847656 793.882812 385.53125 C 787.566406 392.457031 777.101562 394.449219 770.53125 392.757812 C 768.230469 392.171875 766.40625 391.140625 765.414062 389.714844 C 762.285156 385.257812 768.15625 378.414062 767.90625 368.804688 L 785.417969 359.160156 C 785.417969 360.921875 785.71875 362.25 786.488281 362.574219 C 787.648438 363.066406 789.496094 361.089844 789.710938 360.871094 C 789.890625 360.667969 790.058594 360.464844 790.203125 360.261719 C 790.777344 360.332031 791.460938 360.332031 792.203125 360.175781 C 794.578125 359.699219 796.078125 357.9375 796.820312 356.773438 C 797.742188 356.796875 799.132812 356.679688 800.523438 355.910156 C 802.179688 355 803.066406 353.621094 803.726562 352.246094 C 806.121094 352.414062 808.398438 351.742188 810.078125 350.410156 C 815.042969 349.417969 821.203125 348.457031 828.289062 348.015625 C 837.804688 347.417969 844.242188 348.027344 849.386719 347.597656 C 851.878906 350.675781 853.976562 354.652344 853.5 358.96875 " fill-opacity="1" fill-rule="nonzero"/><path fill="#09101c" d="M 785.765625 355.289062 C 785.5625 356.65625 785.417969 358.007812 785.417969 359.160156 L 767.90625 368.804688 L 713.191406 398.929688 L 698.605469 406.96875 C 698.964844 405.976562 699.167969 405.039062 699.300781 404.238281 C 701.121094 405.734375 702.390625 405.101562 703.613281 403.46875 C 704.71875 402.007812 705.964844 400.582031 706.289062 399.046875 L 712.4375 395.667969 L 767.546875 365.316406 L 785.765625 355.289062 " fill-opacity="1" fill-rule="nonzero"/><path fill="#7a1c33" d="M 793.5 344.769531 C 793.390625 344.769531 793.285156 344.71875 793.199219 344.625 C 784.207031 334.449219 778.394531 322.503906 776.40625 310.078125 C 775.734375 305.945312 775.480469 301.703125 775.636719 297.472656 C 775.648438 297.257812 775.828125 297.078125 776.058594 297.089844 C 776.273438 297.089844 776.453125 297.28125 776.441406 297.507812 C 776.285156 301.679688 776.535156 305.871094 777.195312 309.945312 C 779.175781 322.230469 784.917969 334.03125 793.8125 344.097656 C 793.953125 344.265625 793.941406 344.515625 793.773438 344.660156 C 793.691406 344.730469 793.59375 344.769531 793.5 344.769531 " fill-opacity="1" fill-rule="nonzero"/><path fill="#09101c" d="M 859.816406 502.984375 C 859.300781 503.574219 858.714844 504.207031 858.078125 504.84375 C 857.898438 505.023438 857.71875 505.203125 857.527344 505.382812 C 857 505.910156 856.421875 506.4375 855.824219 506.964844 C 855.378906 507.347656 854.925781 507.730469 854.445312 508.113281 C 850.046875 511.648438 844.6875 514.511719 840.527344 515.9375 C 839.183594 513.722656 837.878906 511.613281 836.59375 509.613281 C 836.042969 508.738281 835.492188 507.886719 834.941406 507.046875 C 826.035156 493.339844 818.984375 484.832031 813.628906 479.273438 C 812.210938 477.808594 809.300781 474.875 806.410156 470.164062 C 802.875 464.390625 801.027344 458.613281 800.03125 452.632812 C 799.0625 446.714844 798.929688 440.617188 798.820312 434.109375 C 798.75 429.855469 798.847656 424.800781 799.3125 419.070312 C 799.265625 419.15625 799.242188 419.226562 799.195312 419.3125 C 791.59375 435.8125 785.550781 442.160156 780.277344 455.28125 C 779.871094 456.289062 779.472656 457.320312 779.078125 458.398438 C 775.671875 467.757812 775.027344 473.785156 773.753906 480.039062 C 772.136719 488.042969 769.199219 497.832031 763.675781 509.214844 C 763.265625 510.042969 762.847656 510.871094 762.414062 511.71875 C 761.792969 511.648438 761.167969 511.578125 760.519531 511.492188 C 759.957031 511.421875 759.394531 511.335938 758.820312 511.265625 C 757.644531 511.097656 756.445312 510.917969 755.222656 510.714844 C 754.730469 510.628906 754.238281 510.546875 753.734375 510.449219 C 752.730469 510.28125 751.699219 510.078125 750.667969 509.875 C 750.65625 509.886719 750.65625 509.886719 750.65625 509.875 C 749.144531 509.574219 747.597656 509.253906 746.039062 508.878906 C 742.238281 507.96875 738.667969 506.964844 735.359375 505.886719 C 740.71875 488.785156 743.628906 477.34375 745.285156 469.410156 C 745.738281 467.242188 746.925781 461.371094 749.074219 453.460938 C 751.675781 443.972656 754.203125 436.914062 757.03125 429.4375 C 758.136719 426.546875 759.261719 423.613281 760.472656 420.449219 C 763.015625 413.738281 766.503906 404.367188 770.53125 392.757812 C 777.101562 394.449219 787.566406 392.457031 793.882812 385.53125 C 798.164062 380.847656 799.3125 375.203125 799.578125 371.429688 C 800.25 372.855469 801.207031 374.351562 802.527344 375.765625 C 808.078125 381.699219 816.035156 381.519531 819.035156 381.457031 C 824.824219 381.328125 828.804688 379.195312 834.125 376.328125 C 837.652344 374.449219 840.875 372.710938 843.644531 370.960938 C 843.523438 378.210938 842.984375 384.09375 842.480469 388.191406 C 841.042969 400.175781 838.667969 408.839844 836.59375 418.605469 C 835.050781 425.855469 833.683594 433.714844 832.988281 443.984375 C 832.953125 444.59375 832.914062 445.179688 832.878906 445.746094 C 832.878906 445.746094 832.878906 445.746094 832.878906 445.757812 C 833.261719 447.300781 833.765625 448.945312 834.414062 450.621094 C 836.332031 455.679688 838.695312 459.070312 839.53125 460.304688 C 848.128906 472.886719 856.578125 494.332031 859.816406 502.984375 " fill-opacity="1" fill-rule="nonzero"/><path fill="#b23e04" d="M 581.855469 424.773438 C 581.757812 427.148438 581.421875 429.339844 580.945312 431.328125 C 580.8125 431.84375 580.667969 432.359375 580.523438 432.863281 C 580.453125 433.113281 580.367188 433.378906 580.285156 433.628906 C 580.273438 433.667969 580.273438 433.703125 580.25 433.726562 C 580.164062 434.015625 580.082031 434.289062 579.972656 434.566406 C 579.914062 434.734375 579.851562 434.925781 579.78125 435.105469 C 579.421875 436.050781 579.027344 436.984375 578.582031 437.894531 C 578.449219 438.171875 578.320312 438.433594 578.175781 438.710938 C 578.164062 438.734375 578.152344 438.769531 578.125 438.808594 C 578.007812 439.046875 577.875 439.296875 577.742188 439.527344 C 576.855469 441.15625 575.835938 442.714844 574.722656 444.1875 C 574.496094 444.5 574.253906 444.796875 574.003906 445.109375 C 573.761719 445.421875 573.511719 445.722656 573.257812 446.019531 C 573.257812 446.03125 573.246094 446.03125 573.246094 446.03125 C 572.996094 446.332031 572.746094 446.621094 572.480469 446.917969 C 572.21875 447.207031 571.953125 447.507812 571.6875 447.78125 C 571.414062 448.082031 571.136719 448.355469 570.851562 448.644531 C 570.261719 449.253906 569.640625 449.84375 569.003906 450.429688 C 568.765625 450.644531 568.511719 450.859375 568.261719 451.089844 C 567.984375 451.339844 567.683594 451.59375 567.398438 451.84375 C 567.074219 452.09375 566.761719 452.359375 566.449219 452.609375 C 566.140625 452.863281 565.828125 453.113281 565.515625 453.355469 C 564.449219 454.179688 563.371094 454.972656 562.265625 455.726562 C 559.941406 454.996094 557.015625 454.886719 554.628906 455.882812 C 554.390625 455.988281 554.152344 456.097656 553.921875 456.21875 C 551.96875 457.261719 551.128906 458.675781 549.945312 458.300781 C 548.660156 457.90625 548.707031 456 548.253906 454.132812 C 556.367188 448.09375 564.554688 440.304688 570.742188 431.101562 C 572.730469 428.140625 574.410156 425.195312 575.835938 422.308594 L 581.855469 424.773438 " fill-opacity="1" fill-rule="nonzero"/><path fill="#b23e04" d="M 647.1875 470.007812 C 642.429688 483.695312 629.816406 490.464844 616.152344 497.785156 C 609.667969 501.261719 599.847656 505.753906 586.960938 508.90625 L 587.898438 506.578125 C 594.296875 504.253906 626.414062 485.828125 636.53125 466.292969 C 639.660156 460.253906 641.277344 454.457031 642.09375 449.628906 L 647.644531 448.238281 C 648.902344 453.113281 650.199219 461.296875 647.1875 470.007812 " fill-opacity="1" fill-rule="nonzero"/><path fill="#e5ac38" d="M 587.898438 506.578125 L 586.960938 508.90625 L 582.226562 505.859375 C 582.71875 505.574219 583.113281 505.191406 583.402344 504.554688 C 583.507812 504.328125 583.582031 504.101562 583.628906 503.859375 L 587.898438 506.578125 " fill-opacity="1" fill-rule="nonzero"/><path fill="#e5ac38" d="M 647.644531 448.238281 L 642.09375 449.628906 L 630.09375 444.679688 L 626.269531 443.109375 L 581.855469 424.773438 L 575.835938 422.308594 L 579.78125 420.449219 L 630.046875 441.035156 L 633.871094 442.605469 L 647.644531 448.238281 " fill-opacity="1" fill-rule="nonzero"/><path fill="#e5ac38" d="M 589.429688 439.238281 C 588.617188 442.535156 587.261719 446.5 584.863281 450.621094 C 584.816406 450.707031 584.769531 450.800781 584.71875 450.875 C 582.394531 451.519531 580.226562 452.851562 579.265625 454.742188 C 578.617188 456.039062 578.714844 457.246094 579.039062 458.457031 C 577.226562 460.386719 575.359375 462.015625 573.523438 463.429688 C 570.453125 465.765625 567.503906 467.433594 565.15625 468.570312 C 564.976562 468.105469 564.867188 467.613281 564.785156 467.167969 L 569.410156 461.921875 L 589.429688 439.238281 " fill-opacity="1" fill-rule="nonzero"/><path fill="#e5ac38" d="M 602.90625 447.015625 C 602.1875 450.417969 600.867188 454.613281 598.351562 458.972656 C 598.277344 459.09375 598.207031 459.226562 598.121094 459.34375 C 596.480469 459.632812 595.136719 460.316406 593.9375 459.453125 C 593.421875 459.070312 593.148438 458.554688 593.015625 457.980469 L 602.90625 447.015625 " fill-opacity="1" fill-rule="nonzero"/><path fill="#e5ac38" d="M 617.902344 454.226562 C 616.726562 457.847656 614.894531 462.136719 612.015625 466.558594 C 610.0625 469.566406 607.917969 472.191406 605.734375 474.453125 C 605.085938 473.722656 604.308594 473.148438 603.589844 472.71875 C 604.859375 471.316406 605.640625 469.554688 605.792969 467.695312 L 617.902344 454.226562 " fill-opacity="1" fill-rule="nonzero"/><path fill="#ffffff" d="M 558.394531 458.195312 C 558.515625 458.109375 558.609375 458.050781 558.730469 457.980469 L 558.742188 457.992188 C 558.621094 458.050781 558.515625 458.109375 558.394531 458.195312 Z M 607.042969 476.945312 C 606.8125 475.964844 606.335938 475.136719 605.734375 474.453125 C 605.085938 473.722656 604.308594 473.148438 603.589844 472.71875 C 604.859375 471.316406 605.640625 469.554688 605.792969 467.695312 C 605.832031 467.132812 605.832031 466.558594 605.757812 465.984375 C 605.410156 463.300781 603.695312 460.566406 601.203125 459.585938 C 600.066406 459.140625 599.046875 459.175781 598.121094 459.34375 C 596.480469 459.632812 595.136719 460.316406 593.9375 459.453125 C 593.421875 459.070312 593.148438 458.554688 593.015625 457.980469 C 592.570312 456.074219 593.53125 453.378906 591.949219 451.761719 C 590.535156 450.320312 587.511719 450.105469 584.71875 450.875 C 582.394531 451.519531 580.226562 452.851562 579.265625 454.742188 C 578.617188 456.039062 578.714844 457.246094 579.039062 458.457031 C 579.601562 460.628906 580.894531 462.808594 579.839844 465.5625 C 579.816406 465.613281 579.804688 465.660156 579.78125 465.71875 C 577.828125 470.476562 570.226562 473.507812 566.882812 471.125 C 566.019531 470.5 565.480469 469.554688 565.15625 468.570312 C 564.976562 468.105469 564.867188 467.613281 564.785156 467.167969 C 564.582031 465.972656 564.605469 464.976562 564.605469 464.84375 C 564.675781 462.855469 565.492188 461.695312 565.960938 460.640625 C 566.234375 460.015625 566.402344 459.429688 566.175781 458.734375 C 565.753906 457.441406 564.222656 456.347656 562.265625 455.726562 C 559.941406 454.996094 557.015625 454.886719 554.628906 455.882812 C 554.390625 455.988281 554.152344 456.097656 553.921875 456.21875 C 551.96875 457.261719 551.128906 458.675781 549.945312 458.300781 C 548.660156 457.90625 548.707031 456 548.253906 454.132812 C 548.039062 453.28125 547.714844 452.441406 547.089844 451.761719 C 543.398438 447.6875 529.46875 449.84375 524.457031 458.734375 C 522.921875 461.453125 522.527344 464.257812 522.539062 466.511719 C 523.078125 466.1875 523.558594 465.984375 523.894531 465.851562 L 522.539062 466.511719 L 522.742188 469.265625 C 522.636719 468.523438 522.539062 467.578125 522.539062 466.511719 C 521.507812 467.085938 520.226562 468.042969 519.183594 469.554688 C 518.90625 469.949219 516.257812 473.941406 517.898438 478.515625 C 519.398438 482.652344 523.28125 484.125 524.601562 484.628906 C 527.71875 485.828125 530.605469 485.503906 532.429688 485.035156 C 532.382812 484.519531 532.394531 484.078125 532.429688 483.777344 L 532.429688 485.035156 L 534 484.542969 C 533.664062 484.675781 533.125 484.867188 532.429688 485.035156 C 532.476562 485.550781 532.597656 486.136719 532.847656 486.773438 C 532.898438 486.867188 533.664062 488.679688 535.414062 489.757812 C 537.1875 490.847656 539.488281 490.917969 541.648438 490.09375 L 542.964844 489.46875 C 542.535156 489.71875 542.101562 489.9375 541.648438 490.09375 C 542.871094 491.492188 544.296875 492.546875 545.953125 492.609375 C 547.59375 492.644531 548.132812 491.660156 550.085938 491.613281 C 552.652344 491.542969 555.554688 493.171875 555.636719 494.742188 C 555.699219 496.121094 553.527344 496.347656 551.789062 499.152344 C 551.597656 499.488281 549.679688 502.648438 550.652344 504.410156 C 551.464844 505.886719 554.296875 506.375 557.9375 505.574219 C 557.53125 503.703125 557.605469 502.21875 557.628906 501.847656 L 557.9375 505.574219 L 560.914062 504.699219 C 559.871094 505.082031 558.875 505.371094 557.9375 505.574219 C 558.382812 507.574219 559.390625 510.019531 561.621094 511.960938 C 565.277344 515.136719 571.125 515.960938 574.148438 513.671875 C 576.039062 512.222656 575.273438 510.726562 577.851562 508.402344 C 579.671875 506.761719 581.171875 506.484375 582.226562 505.859375 C 582.71875 505.574219 583.113281 505.191406 583.402344 504.554688 C 583.507812 504.328125 583.582031 504.101562 583.628906 503.859375 C 583.664062 503.65625 583.6875 503.464844 583.6875 503.273438 C 583.75 501.570312 582.65625 500.0625 583.675781 498.71875 C 584.203125 498.046875 584.695312 498.144531 587.058594 497.316406 C 587.070312 497.304688 587.082031 497.304688 587.105469 497.304688 C 590.269531 496.191406 591.839844 495.640625 592.65625 494.453125 C 592.917969 494.070312 593.769531 492.632812 592.777344 489.589844 C 595.953125 489.21875 600.53125 488.03125 603.902344 484.351562 C 605.316406 482.808594 607.761719 480.132812 607.042969 476.945312 " fill-opacity="1" fill-rule="nonzero"/><path fill="#ffffff" d="M 614.871094 543.976562 C 613.980469 547.835938 608.382812 549.296875 608.035156 549.394531 C 605.351562 550.050781 604.535156 549.140625 599.777344 549.105469 C 598.492188 549.09375 595.03125 549.082031 591.515625 549.957031 C 585.679688 551.40625 585.34375 553.875 581.269531 554.796875 C 576.351562 555.914062 574.554688 552.832031 567.589844 551.382812 C 562.085938 550.230469 557.855469 551.082031 549.367188 552.796875 C 538.519531 555 538.253906 557.160156 530.007812 557.925781 C 526.855469 558.226562 520.777344 558.726562 513.777344 556.5 C 507.890625 554.628906 506.90625 552.582031 501.25 549.667969 C 489.871094 543.820312 478.386719 544.15625 475.621094 544.265625 C 462.828125 544.78125 456.785156 550.230469 452.84375 546.542969 C 450.300781 544.167969 450.265625 539.507812 451.128906 536.574219 C 451.5 535.324219 452.015625 534.488281 453.082031 533.289062 C 453.96875 532.304688 455.214844 531.085938 457.109375 529.179688 C 466.113281 520.097656 465.921875 519.246094 468.222656 518.644531 C 473.605469 517.257812 477.371094 521.246094 480.175781 518.933594 C 481.792969 517.605469 481.265625 515.675781 481.890625 512.378906 C 482.882812 507.121094 486.097656 502.171875 489.464844 499.199219 C 491.839844 497.113281 494.285156 496.011719 496.117188 496.453125 C 498.792969 497.089844 499.296875 500.828125 501.8125 500.707031 C 503.683594 500.636719 503.96875 498.5625 506.378906 497.019531 C 510.121094 494.597656 515.800781 495.542969 519.484375 497.867188 C 523.210938 500.242188 524.757812 503.957031 525.164062 504.988281 C 526.601562 508.59375 526.183594 511.648438 527.167969 511.816406 C 528.136719 511.984375 528.4375 508.988281 531.148438 506.988281 C 533.507812 505.238281 536.960938 504.78125 539.683594 505.847656 C 542.199219 506.808594 543.46875 508.796875 544.824219 510.964844 C 548.792969 517.375 547.449219 521.90625 549.945312 522.914062 C 552.160156 523.8125 553.753906 520.445312 559.054688 518.371094 C 563.273438 516.71875 570.453125 515.625 574.996094 518.933594 C 577.191406 520.527344 578.019531 522.589844 578.570312 524.648438 C 579.363281 527.597656 579.578125 530.519531 582.40625 532.03125 C 586.097656 533.996094 588.351562 530.414062 596.9375 530.878906 C 599.535156 531.023438 604.417969 531.359375 608.886719 534.582031 C 610.0625 535.433594 615.863281 539.617188 614.871094 543.976562 " fill-opacity="1" fill-rule="nonzero"/><path fill="#bcbace" d="M 706.289062 399.046875 C 706.335938 398.820312 706.359375 398.582031 706.359375 398.34375 C 706.371094 397.648438 706.265625 396.988281 706.058594 396.386719 C 708.171875 395.597656 710.125 394.796875 711.945312 393.957031 C 712.113281 394.519531 712.28125 395.082031 712.4375 395.667969 L 706.289062 399.046875 " fill-opacity="1" fill-rule="nonzero"/><path fill="#09101c" d="M 840.527344 515.9375 C 837.433594 517.003906 834.988281 517.269531 834.078125 516.429688 C 834.03125 516.382812 833.980469 516.320312 833.933594 516.273438 C 833.382812 515.53125 833.527344 513.828125 836.59375 509.613281 C 837.878906 511.613281 839.183594 513.722656 840.527344 515.9375 " fill-opacity="1" fill-rule="nonzero"/><path fill="#ab2641" d="M 870.003906 548.242188 C 849.664062 550.542969 840.742188 551 840.539062 549.957031 C 840.25 548.496094 850.070312 546.53125 851.207031 540.5625 C 851.351562 539.867188 851.351562 539.183594 851.257812 538.539062 C 848.621094 534.726562 845.777344 530.820312 842.699219 526.890625 C 841.667969 525.574219 840.625 524.253906 839.53125 522.914062 C 837.710938 520.671875 835.886719 518.515625 834.078125 516.429688 C 834.988281 517.269531 837.433594 517.003906 840.527344 515.9375 C 844.6875 514.511719 850.046875 511.648438 854.445312 508.113281 C 854.925781 507.730469 855.378906 507.347656 855.824219 506.964844 C 856.421875 506.4375 857 505.910156 857.527344 505.382812 C 857.71875 505.203125 857.898438 505.023438 858.078125 504.84375 C 858.714844 504.207031 859.300781 503.574219 859.816406 502.984375 C 860.582031 505 861.050781 506.316406 861.183594 506.6875 C 861.21875 506.785156 861.253906 506.890625 861.289062 507 L 861.300781 507 C 863.316406 512.726562 865.714844 520.40625 867.800781 529.839844 C 868.242188 531.816406 868.664062 533.875 869.058594 536.007812 C 869.324219 537.339844 869.476562 538.679688 869.550781 540.023438 L 870.003906 548.242188 " fill-opacity="1" fill-rule="nonzero"/><path fill="#ab2641" d="M 762.414062 511.71875 C 758.878906 518.671875 754.382812 526.183594 748.652344 534.222656 C 746.78125 536.847656 744.769531 539.53125 742.625 542.277344 L 742.011719 546.253906 C 715.613281 548.710938 708.792969 548.050781 708.554688 546.6875 C 708.410156 545.882812 710.554688 545.019531 718.515625 539.566406 C 720.003906 538.550781 721.308594 537.640625 722.398438 536.859375 C 722.542969 536.34375 722.6875 535.816406 722.820312 535.289062 C 724.953125 527.585938 727.039062 519.75 729.054688 511.816406 C 729.113281 511.601562 729.160156 511.359375 729.222656 511.132812 C 729.796875 508.878906 730.359375 506.628906 730.910156 504.375 C 732.351562 504.890625 733.824219 505.394531 735.359375 505.886719 C 738.667969 506.964844 742.238281 507.96875 746.039062 508.878906 C 747.597656 509.253906 749.144531 509.574219 750.65625 509.875 C 750.65625 509.886719 750.65625 509.886719 750.667969 509.875 C 751.699219 510.078125 752.730469 510.28125 753.734375 510.449219 C 754.238281 510.546875 754.730469 510.628906 755.222656 510.714844 C 756.445312 510.917969 757.644531 511.097656 758.820312 511.265625 C 759.394531 511.335938 759.957031 511.421875 760.519531 511.492188 C 761.167969 511.578125 761.792969 511.648438 762.414062 511.71875 " fill-opacity="1" fill-rule="nonzero"/><path fill="#d6476a" d="M 867.597656 329.371094 C 867.453125 330.414062 866.230469 338.921875 859.179688 344.167969 C 856.148438 346.433594 853.101562 347.285156 849.386719 347.597656 C 844.242188 348.027344 837.804688 347.417969 828.289062 348.015625 C 821.203125 348.457031 815.042969 349.417969 810.078125 350.410156 C 810.652344 349.96875 811.15625 349.453125 811.566406 348.867188 C 812.570312 347.441406 812.96875 345.75 812.882812 344.050781 C 812.824219 342.933594 812.558594 341.820312 812.105469 340.789062 C 811.347656 338.992188 810.066406 337.398438 808.425781 336.34375 C 806.496094 335.097656 804.277344 334.726562 802.167969 335.027344 C 803.738281 333.949219 805.414062 332.90625 807.214844 331.933594 C 817.917969 326.097656 828.828125 324.351562 837.84375 324.21875 C 839.316406 324.195312 840.742188 324.21875 842.097656 324.277344 C 844.207031 324.363281 846.1875 324.515625 847.984375 324.722656 L 864.300781 315.734375 C 867.417969 321.570312 868.085938 325.402344 867.597656 329.371094 " fill-opacity="1" fill-rule="nonzero"/><path fill="#ffffff" d="M 805.605469 344.371094 C 805.605469 345.535156 805.511719 346.863281 805.1875 348.289062 C 804.972656 349.203125 804.660156 350.171875 804.230469 351.144531 C 804.074219 351.503906 803.90625 351.875 803.726562 352.246094 C 803.066406 353.621094 802.179688 355 800.523438 355.910156 C 799.132812 356.679688 797.742188 356.796875 796.820312 356.773438 C 796.078125 357.9375 794.578125 359.699219 792.203125 360.175781 C 791.460938 360.332031 790.777344 360.332031 790.203125 360.261719 C 790.058594 360.464844 789.890625 360.667969 789.710938 360.871094 C 789.496094 361.089844 787.648438 363.066406 786.488281 362.574219 C 785.71875 362.25 785.417969 360.921875 785.417969 359.160156 C 785.417969 358.007812 785.5625 356.65625 785.765625 355.289062 C 786.042969 353.539062 786.4375 351.742188 786.859375 350.230469 C 787.566406 347.75 787.9375 346.433594 788.957031 344.9375 C 789.710938 343.808594 790.621094 342.886719 791.605469 342.132812 C 792.625 341.351562 793.714844 340.765625 794.78125 340.308594 C 797.265625 339.257812 799.625 338.957031 800.714844 338.859375 L 800.957031 338.945312 C 801.460938 339.039062 802.128906 339.21875 802.800781 339.617188 C 804.671875 340.695312 805.332031 342.539062 805.511719 343.125 L 805.582031 343.605469 C 805.59375 343.84375 805.605469 344.097656 805.605469 344.371094 " fill-opacity="1" fill-rule="nonzero"/><path fill="#ffffff" d="M 529.253906 490.476562 C 528.210938 488.234375 524.804688 487.972656 522.597656 488.761719 C 520.320312 489.589844 518.128906 492.007812 518.621094 494.070312 C 519.207031 496.539062 523.488281 498.035156 526.398438 496.539062 C 528.507812 495.460938 530.246094 492.621094 529.253906 490.476562 " fill-opacity="1" fill-rule="nonzero"/><path fill="#ffffff" d="M 543.867188 502.230469 C 542.929688 500.996094 539.921875 501.222656 538.265625 502.804688 C 536.445312 504.53125 536.3125 507.828125 537.511719 508.6875 C 538.976562 509.730469 543.039062 507.585938 543.960938 504.601562 C 544.09375 504.195312 544.453125 503.007812 543.867188 502.230469 " fill-opacity="1" fill-rule="nonzero"/><path fill="#ffffff" d="M 551.644531 494.382812 C 550.472656 493.074219 547.964844 492.980469 547.019531 494.238281 C 546.597656 494.800781 546.441406 495.710938 546.816406 496.371094 C 547.726562 498.035156 551.683594 497.75 552.292969 496.371094 C 552.664062 495.53125 551.707031 494.441406 551.644531 494.382812 " fill-opacity="1" fill-rule="nonzero"/><path fill="#ffffff" d="M 552.414062 507.742188 C 551.65625 507.3125 550.097656 508.066406 549.945312 509.253906 C 549.824219 510.152344 550.519531 511.21875 551.371094 511.242188 C 552.234375 511.277344 552.832031 510.1875 552.929688 509.394531 C 553 508.917969 552.953125 508.042969 552.414062 507.742188 " fill-opacity="1" fill-rule="nonzero"/><path fill="#ffffff" d="M 556.824219 508.019531 C 556.175781 507.789062 555.015625 508.785156 555.15625 509.636719 C 555.21875 509.996094 555.503906 510.292969 555.828125 510.4375 C 556.296875 510.652344 556.847656 510.511719 557.160156 510.210938 C 557.785156 509.574219 557.425781 508.234375 556.824219 508.019531 " fill-opacity="1" fill-rule="nonzero"/><path fill="#ffffff" d="M 556.199219 511.71875 C 555.554688 511.410156 554.617188 511.949219 554.59375 512.476562 C 554.570312 512.824219 554.917969 513.121094 555.15625 513.242188 C 555.722656 513.53125 556.585938 513.386719 556.777344 512.859375 C 556.921875 512.453125 556.621094 511.925781 556.199219 511.71875 " fill-opacity="1" fill-rule="nonzero"/><path fill="#ffffff" d="M 558.011719 513.53125 C 556.140625 512.980469 553.804688 515.28125 553.875 517.027344 C 553.910156 517.675781 554.269531 518.480469 554.738281 518.550781 C 555.027344 518.597656 555.21875 518.324219 555.878906 517.84375 C 556.523438 517.363281 557.125 517.066406 557.398438 516.945312 C 558.753906 516.332031 559.558594 516.859375 559.855469 516.417969 C 560.277344 515.820312 559.390625 513.925781 558.011719 513.53125 " fill-opacity="1" fill-rule="nonzero"/><path fill="#ffffff" d="M 604.621094 506.605469 C 602.523438 506.398438 599.320312 511.121094 600.4375 514.378906 C 600.855469 515.601562 601.730469 516.152344 605.375 518.359375 C 610.710938 521.59375 613.394531 523.210938 614.101562 523.488281 C 617.578125 524.804688 622.660156 526.734375 625.3125 524.242188 C 627.335938 522.335938 627.578125 518.144531 625.875 516.65625 C 624.050781 515.0625 621.332031 517.734375 615.816406 516.65625 C 614.675781 516.429688 612.425781 515.972656 610.3125 514.378906 C 606.117188 511.230469 606.597656 506.785156 604.621094 506.605469 " fill-opacity="1" fill-rule="nonzero"/><path fill="#ffffff" d="M 590.570312 513.050781 C 589.394531 512.980469 587.609375 515.746094 588.484375 517.605469 C 588.976562 518.683594 590.414062 519.546875 591.324219 519.125 C 592.128906 518.753906 592.238281 517.53125 592.273438 517.027344 C 592.429688 515.292969 591.578125 513.109375 590.570312 513.050781 " fill-opacity="1" fill-rule="nonzero"/><path fill="#ffffff" d="M 518.1875 465 C 517.21875 462.171875 511.367188 460.914062 507.375 463 C 505.097656 464.1875 502.398438 466.988281 502.820312 470.40625 C 503.035156 472.25 504.199219 474.453125 506.234375 475.246094 C 509.363281 476.445312 512.625 473.53125 514.207031 472.105469 C 515.335938 471.101562 519.136719 467.695312 518.1875 465 " fill-opacity="1" fill-rule="nonzero"/><path fill="#ffffff" d="M 500.109375 479.082031 C 498.214844 477.773438 494.597656 480.386719 492.84375 481.644531 C 490.59375 483.273438 488.542969 484.761719 488.722656 486.773438 C 488.914062 488.90625 491.527344 490.621094 493.839844 490.75 C 497.195312 490.941406 499.523438 487.816406 500.398438 485.777344 C 501.296875 483.667969 501.730469 480.207031 500.109375 479.082031 " fill-opacity="1" fill-rule="nonzero"/><path fill="#ffffff" d="M 628.726562 550.246094 C 628.761719 548.792969 630.464844 547.800781 633.847656 545.882812 C 639.132812 542.875 641.78125 541.378906 644.671875 542.085938 C 648.496094 543.019531 648.351562 546.589844 653.027344 547.777344 C 653.660156 547.945312 656.347656 548.589844 659.285156 547.585938 C 662.59375 546.46875 662.929688 544.371094 665.363281 544.359375 C 667.9375 544.347656 670.167969 546.6875 670.671875 547.210938 C 671.894531 548.472656 671.847656 549.140625 673.140625 550.246094 C 674.496094 551.382812 675.863281 551.777344 677.132812 552.136719 C 678.765625 552.605469 683.222656 553.851562 687.191406 551.753906 C 689.289062 550.652344 688.75 549.933594 690.417969 549.105469 C 693.726562 547.464844 696.507812 549.933594 706.179688 552.90625 C 710.375 554.1875 712.484375 554.535156 712.4375 554.988281 C 712.367188 555.707031 707.007812 555.324219 696.121094 556.5 C 696.003906 556.511719 694.972656 556.644531 692.886719 556.882812 C 676.847656 558.777344 676.871094 558.789062 676.378906 558.789062 C 667.21875 558.632812 666.730469 553.972656 659.859375 555.179688 C 654.800781 556.066406 654.71875 558.65625 649.417969 559.160156 C 644.921875 559.589844 641.410156 558.070312 636.890625 556.128906 C 632.898438 554.402344 628.65625 552.582031 628.726562 550.246094 " fill-opacity="1" fill-rule="nonzero"/><path fill="#ffffff" d="M 624.734375 554.222656 C 623.40625 553.660156 621.246094 552.773438 618.285156 552.519531 C 616.128906 552.339844 614.785156 552.605469 604.042969 555.9375 C 600.554688 557.015625 599.703125 557.289062 599.679688 557.828125 C 599.597656 559.253906 605.265625 561.351562 610.878906 561.628906 C 616.917969 561.914062 617.972656 559.84375 624.542969 560.105469 C 630.011719 560.332031 632.863281 561.902344 633.28125 561.066406 C 633.820312 559.949219 629.484375 556.246094 624.734375 554.222656 " fill-opacity="1" fill-rule="nonzero"/><path fill="#ffffff" d="M 732.375 550.617188 C 734.398438 549.644531 737.527344 548.410156 741.484375 547.96875 C 743.152344 547.777344 743.808594 547.847656 757.25 550.246094 C 760.183594 550.757812 763.914062 551.480469 767.496094 554.222656 C 768.515625 555.011719 769.582031 555.851562 769.390625 556.5 C 769.03125 557.78125 764.273438 557.289062 754.011719 556.5 C 741.066406 555.515625 734.578125 555.011719 733.703125 555.179688 C 730.011719 555.851562 725.410156 557.300781 721.742188 554.796875 C 720.722656 554.101562 720.0625 553.289062 719.65625 552.710938 " fill-opacity="1" fill-rule="nonzero"/><path fill="#7a1c33" d="M 839.964844 323.367188 C 839.902344 323.367188 839.84375 323.355469 839.785156 323.320312 C 839.582031 323.222656 839.507812 322.972656 839.605469 322.78125 C 840.503906 321.042969 841.679688 319.519531 843.117188 318.25 C 846.652344 315.125 850.765625 314.441406 852.898438 314.308594 C 853.101562 314.285156 853.304688 314.464844 853.332031 314.691406 C 853.332031 314.90625 853.175781 315.097656 852.945312 315.109375 C 850.910156 315.242188 847 315.890625 843.65625 318.863281 C 842.289062 320.058594 841.175781 321.496094 840.324219 323.152344 C 840.25 323.285156 840.109375 323.367188 839.964844 323.367188 " fill-opacity="1" fill-rule="nonzero"/><path fill="#7a1c33" d="M 862.320312 330.054688 C 862.152344 330.054688 861.996094 329.945312 861.9375 329.777344 C 861.566406 328.675781 860.632812 326.625 858.472656 325.296875 C 854.46875 322.828125 850.023438 325.140625 849.84375 325.25 C 849.636719 325.34375 849.398438 325.273438 849.289062 325.070312 C 849.183594 324.875 849.265625 324.636719 849.457031 324.53125 C 849.664062 324.421875 854.503906 321.90625 858.90625 324.613281 C 861.277344 326.074219 862.296875 328.316406 862.703125 329.527344 C 862.777344 329.742188 862.65625 329.96875 862.441406 330.042969 C 862.40625 330.054688 862.355469 330.054688 862.320312 330.054688 " fill-opacity="1" fill-rule="nonzero"/><path fill="#7a1c33" d="M 812.273438 349.273438 C 812.1875 349.273438 812.09375 349.238281 812.019531 349.175781 C 811.839844 349.035156 811.816406 348.78125 811.960938 348.613281 C 812.957031 347.390625 813.566406 346.015625 813.722656 344.625 C 814.09375 341.339844 811.9375 338.765625 810.894531 337.53125 C 809.996094 336.453125 808.929688 335.515625 807.71875 334.761719 C 807.523438 334.644531 807.464844 334.390625 807.585938 334.210938 C 807.703125 334.019531 807.957031 333.960938 808.148438 334.078125 C 809.417969 334.882812 810.558594 335.863281 811.515625 337.003906 C 812.621094 338.332031 814.933594 341.089844 814.527344 344.707031 C 814.359375 346.253906 813.6875 347.777344 812.585938 349.117188 C 812.5 349.214844 812.390625 349.273438 812.273438 349.273438 " fill-opacity="1" fill-rule="nonzero"/><path fill="#7a1c33" d="M 708.699219 363.496094 C 708.625 363.496094 708.566406 363.484375 708.507812 363.449219 C 708.300781 363.351562 708.230469 363.101562 708.339844 362.910156 C 709.585938 360.597656 711.359375 358.679688 713.457031 357.347656 C 719.773438 353.371094 726.859375 355.910156 728.214844 356.460938 C 728.417969 356.546875 728.515625 356.785156 728.429688 356.988281 C 728.347656 357.195312 728.105469 357.289062 727.902344 357.207031 C 726.621094 356.691406 719.871094 354.269531 713.886719 358.03125 C 711.898438 359.277344 710.230469 361.101562 709.046875 363.292969 C 708.972656 363.425781 708.839844 363.496094 708.699219 363.496094 " fill-opacity="1" fill-rule="nonzero"/><path fill="#7a1c33" d="M 769.210938 299.316406 C 768.191406 299.316406 767.246094 299.042969 766.492188 298.539062 C 764.765625 297.378906 763.925781 294.898438 764.394531 292.367188 C 764.441406 292.140625 764.644531 291.996094 764.859375 292.042969 C 765.089844 292.082031 765.230469 292.296875 765.183594 292.511719 C 764.777344 294.742188 765.472656 296.886719 766.933594 297.867188 C 767.894531 298.503906 769.199219 298.671875 770.542969 298.335938 C 772.28125 297.890625 773.792969 296.65625 774.679688 294.957031 C 774.785156 294.753906 775.039062 294.679688 775.230469 294.789062 C 775.421875 294.882812 775.503906 295.136719 775.398438 295.328125 C 774.402344 297.234375 772.710938 298.609375 770.746094 299.113281 C 770.21875 299.246094 769.703125 299.316406 769.210938 299.316406 " fill-opacity="1" fill-rule="nonzero"/><path fill="#7a1c33" d="M 783.644531 297.234375 C 781.390625 297.234375 779.582031 296.695312 779.257812 296.597656 C 778.132812 296.238281 777.039062 295.710938 776.035156 295.050781 C 775.839844 294.933594 775.792969 294.679688 775.914062 294.488281 C 776.035156 294.308594 776.285156 294.25 776.476562 294.382812 C 777.425781 295.003906 778.441406 295.484375 779.507812 295.820312 C 779.726562 295.890625 784.761719 297.449219 788.65625 295.21875 C 792.589844 292.957031 794.445312 287.550781 793.164062 282.074219 C 793.105469 281.859375 793.234375 281.632812 793.464844 281.585938 C 793.679688 281.535156 793.894531 281.667969 793.941406 281.882812 C 795.308594 287.707031 793.308594 293.484375 789.050781 295.914062 C 787.289062 296.933594 785.335938 297.234375 783.644531 297.234375 " fill-opacity="1" fill-rule="nonzero"/><path fill="#7a1c33" d="M 726.488281 382.523438 C 726.378906 382.523438 726.273438 382.476562 726.1875 382.382812 C 726.042969 382.226562 726.054688 381.960938 726.222656 381.816406 C 728.824219 379.515625 730.972656 376.867188 732.589844 373.957031 C 735.023438 369.570312 735.621094 365.652344 736.535156 358.535156 C 737.804688 348.601562 738.164062 344.347656 738.367188 341.796875 C 738.570312 339.4375 738.621094 338.730469 739.195312 336.476562 C 739.84375 333.984375 740.488281 332.019531 741.125 330.113281 C 742.214844 326.804688 743.257812 323.691406 743.929688 318.503906 C 744.289062 315.816406 744.480469 313.085938 744.503906 310.390625 C 744.503906 310.164062 744.683594 309.996094 744.902344 309.996094 C 745.128906 309.996094 745.308594 310.175781 745.308594 310.402344 C 745.285156 313.132812 745.09375 315.890625 744.734375 318.609375 C 744.050781 323.871094 742.996094 327.023438 741.890625 330.363281 C 741.257812 332.257812 740.609375 334.210938 739.984375 336.679688 C 739.421875 338.859375 739.363281 339.554688 739.171875 341.867188 C 738.96875 344.421875 738.605469 348.6875 737.335938 358.644531 C 736.402344 365.855469 735.800781 369.835938 733.296875 374.339844 C 731.628906 377.347656 729.4375 380.070312 726.761719 382.417969 C 726.679688 382.488281 726.582031 382.523438 726.488281 382.523438 " fill-opacity="1" fill-rule="nonzero"/><path fill="#7a1c33" d="M 787.433594 342.441406 C 787.324219 342.441406 787.21875 342.394531 787.144531 342.324219 C 782.253906 337.421875 773.839844 327.058594 772.507812 312.605469 C 772.160156 308.867188 772.304688 305.046875 772.941406 301.269531 C 772.976562 301.042969 773.179688 300.898438 773.394531 300.9375 C 773.625 300.972656 773.769531 301.175781 773.730469 301.402344 C 773.109375 305.117188 772.964844 308.855469 773.3125 312.535156 C 774.617188 326.734375 782.902344 336.929688 787.710938 341.75 C 787.867188 341.902344 787.867188 342.167969 787.710938 342.324219 C 787.636719 342.394531 787.53125 342.441406 787.433594 342.441406 " fill-opacity="1" fill-rule="nonzero"/><path fill="#7a1c33" d="M 779.164062 390.78125 C 778.996094 390.78125 778.839844 390.78125 778.683594 390.78125 C 778.46875 390.769531 778.285156 390.589844 778.300781 390.363281 C 778.300781 390.144531 778.480469 389.964844 778.707031 389.964844 C 781.320312 390.027344 787.867188 389.640625 792.347656 384.695312 C 795.5 381.21875 796.234375 377.035156 796.710938 374.269531 C 797.058594 372.292969 797.335938 369.140625 796.710938 365.390625 C 796.460938 363.902344 796.089844 362.429688 795.585938 361.003906 C 795.511719 360.789062 795.632812 360.5625 795.835938 360.488281 C 796.054688 360.417969 796.28125 360.523438 796.351562 360.742188 C 796.867188 362.203125 797.25 363.722656 797.503906 365.257812 C 798.152344 369.117188 797.863281 372.363281 797.503906 374.414062 C 797.035156 377.097656 796.257812 381.589844 792.949219 385.234375 C 788.488281 390.144531 782.136719 390.78125 779.164062 390.78125 " fill-opacity="1" fill-rule="nonzero"/><path fill="#7a1c33" d="M 819.164062 379.300781 C 818.003906 379.300781 816.804688 379.207031 815.558594 379.003906 C 808.640625 377.910156 803.617188 374.929688 800.609375 370.148438 C 798.113281 366.167969 797.730469 362.023438 797.839844 359.242188 C 797.851562 359.015625 798.054688 358.835938 798.269531 358.847656 C 798.488281 358.859375 798.667969 359.050781 798.652344 359.265625 C 798.546875 361.9375 798.90625 365.917969 801.292969 369.714844 C 804.167969 374.292969 809.011719 377.144531 815.675781 378.210938 C 822.355469 379.277344 827.53125 377.085938 832.542969 374.964844 C 837.519531 372.867188 842.074219 369.917969 846.101562 366.214844 C 846.257812 366.074219 846.523438 366.074219 846.664062 366.242188 C 846.820312 366.410156 846.808594 366.660156 846.640625 366.816406 C 842.554688 370.578125 837.914062 373.574219 832.867188 375.707031 C 828.671875 377.480469 824.367188 379.300781 819.164062 379.300781 " fill-opacity="1" fill-rule="nonzero"/><path fill="#ffffff" d="M 809.636719 471.339844 C 809.574219 471.339844 809.515625 471.304688 809.46875 471.253906 C 806.097656 467.195312 803.59375 462.699219 802.023438 457.90625 C 800.238281 452.40625 800.175781 448.035156 800.117188 444.175781 C 799.734375 418.054688 800.140625 402.726562 800.164062 402.09375 C 800.261719 398.820312 800.417969 393.105469 800.597656 385.867188 C 800.597656 385.734375 800.714844 385.664062 800.8125 385.652344 C 800.933594 385.652344 801.027344 385.75 801.027344 385.867188 C 800.847656 393.117188 800.691406 398.832031 800.609375 402.105469 C 800.585938 402.738281 800.164062 418.054688 800.558594 444.164062 C 800.609375 447.996094 800.679688 452.335938 802.441406 457.761719 C 803.988281 462.507812 806.46875 466.953125 809.804688 470.980469 C 809.886719 471.0625 809.875 471.207031 809.777344 471.28125 C 809.730469 471.316406 809.683594 471.339844 809.636719 471.339844 " fill-opacity="1" fill-rule="nonzero"/><path fill="#ffffff" d="M 801.398438 385.761719 C 799.828125 385.761719 798.246094 385.628906 796.6875 385.375 C 796.582031 385.351562 796.496094 385.246094 796.519531 385.125 C 796.53125 385.003906 796.640625 384.921875 796.773438 384.945312 C 798.449219 385.222656 800.152344 385.339844 801.855469 385.316406 C 804.984375 385.269531 808.089844 384.695312 811.085938 383.628906 C 811.195312 383.578125 811.324219 383.640625 811.363281 383.757812 C 811.410156 383.867188 811.347656 383.988281 811.230469 384.035156 C 808.195312 385.125 805.042969 385.699219 801.855469 385.75 C 801.710938 385.761719 801.554688 385.761719 801.398438 385.761719 " fill-opacity="1" fill-rule="nonzero"/><path fill="#ffffff" d="M 831.285156 447.039062 C 831.25 447.039062 831.214844 447.039062 831.175781 447.015625 C 829.773438 446.285156 828.539062 445.300781 827.507812 444.128906 C 826.25 442.6875 825.316406 440.953125 824.8125 439.105469 C 824.777344 438.988281 824.847656 438.867188 824.957031 438.832031 C 825.074219 438.808594 825.195312 438.878906 825.230469 438.988281 C 825.722656 440.773438 826.621094 442.449219 827.84375 443.839844 C 828.839844 444.976562 830.027344 445.925781 831.382812 446.632812 C 831.488281 446.691406 831.523438 446.824219 831.476562 446.929688 C 831.429688 447.003906 831.355469 447.039062 831.285156 447.039062 " fill-opacity="1" fill-rule="nonzero"/><path fill="#ffffff" d="M 769.582031 485.371094 C 769.558594 485.371094 769.546875 485.371094 769.523438 485.371094 C 769.417969 485.335938 769.34375 485.214844 769.367188 485.105469 C 770.820312 479.691406 771.835938 474.273438 772.402344 469.003906 C 772.484375 468.234375 772.558594 467.503906 772.617188 466.808594 C 772.890625 463.945312 773.121094 461.476562 774.128906 458.339844 C 775.242188 454.816406 776.96875 451.472656 779.28125 448.40625 C 779.355469 448.308594 779.484375 448.285156 779.582031 448.355469 C 779.675781 448.429688 779.703125 448.574219 779.628906 448.667969 C 777.351562 451.699219 775.636719 454.996094 774.535156 458.46875 C 773.550781 461.574219 773.335938 463.898438 773.058594 466.847656 C 772.988281 467.539062 772.917969 468.273438 772.832031 469.050781 C 772.269531 474.347656 771.25 479.785156 769.800781 485.214844 C 769.765625 485.3125 769.679688 485.371094 769.582031 485.371094 " fill-opacity="1" fill-rule="nonzero"/><path fill="#ffffff" d="M 828.300781 384.40625 C 827.328125 384.40625 826.347656 384.296875 825.398438 384.09375 C 825.277344 384.058594 825.207031 383.949219 825.230469 383.832031 C 825.253906 383.710938 825.375 383.640625 825.496094 383.664062 C 827.339844 384.082031 829.28125 384.082031 831.082031 383.664062 C 834.628906 382.847656 836.90625 380.679688 837.949219 379.46875 C 838.023438 379.375 838.167969 379.363281 838.261719 379.445312 C 838.347656 379.515625 838.359375 379.660156 838.285156 379.746094 C 837.207031 381.015625 834.84375 383.242188 831.1875 384.09375 C 830.253906 384.296875 829.28125 384.40625 828.300781 384.40625 " fill-opacity="1" fill-rule="nonzero"/><path fill="#09101c" d="M 853.835938 539.855469 C 852.996094 539.855469 852.324219 539.699219 851.964844 539.605469 L 852.179688 538.824219 C 852.828125 539.003906 854.542969 539.339844 856.386719 538.488281 C 858.328125 537.589844 859.179688 535.949219 859.457031 535.289062 L 860.199219 535.589844 C 859.886719 536.34375 858.929688 538.203125 856.722656 539.21875 C 855.679688 539.699219 854.671875 539.855469 853.835938 539.855469 " fill-opacity="1" fill-rule="nonzero"/><path fill="#09101c" d="M 724.605469 537.242188 L 723.828125 537.0625 C 725.300781 530.867188 726.929688 524.636719 728.667969 518.539062 C 729.710938 514.871094 730.816406 511.191406 731.941406 507.574219 L 732.710938 507.8125 C 731.582031 511.421875 730.480469 515.101562 729.4375 518.753906 C 727.710938 524.851562 726.082031 531.074219 724.605469 537.242188 " fill-opacity="1" fill-rule="nonzero"/></svg>